<svg width="312" height="132" viewBox="0 0 312 132" fill="none" xmlns="http://www.w3.org/2000/svg">
<rect x="3" y="12.8184" width="244.929" height="80" rx="12" transform="rotate(-3 3 12.8184)" fill="#FFF2E0"/>
<path d="M19.2294 40.0062L17.6316 40.0899L17.0035 28.1064L18.6013 28.0226L18.8676 33.1037L22.7343 32.901L22.468 27.82L24.0658 27.7363L24.6939 39.7198L23.0961 39.8036L22.8114 34.371L18.9447 34.5737L19.2294 40.0062ZM30.4678 39.5774C28.151 39.6989 26.3358 38.0796 26.2077 35.635C26.0796 33.1903 27.7156 31.3903 30.0324 31.2688C32.3492 31.1474 34.1645 32.7666 34.2926 35.2113C34.4207 37.6559 32.7847 39.456 30.4678 39.5774ZM30.3908 38.1075C31.7809 38.0346 32.7793 36.9088 32.6948 35.295C32.6102 33.6812 31.4995 32.666 30.1094 32.7388C28.7193 32.8117 27.7209 33.9375 27.8055 35.5513C27.8901 37.165 29.0007 38.1803 30.3908 38.1075ZM39.4564 38.9461L37.4431 39.0517L34.8674 31.1757L36.4013 31.0953L38.3929 37.608L39.7247 30.9211L41.754 30.8148L43.7775 37.3258L45.0774 30.6406L46.6113 30.5602L44.8729 38.6623L42.8597 38.7678L40.8202 32.2576L39.4564 38.9461ZM54.6934 29.9764C55.764 29.9203 56.7175 30.383 57.385 31.1972L57.1129 26.0043L58.7107 25.9206L59.3387 37.9042L57.7409 37.9879L57.6781 36.7895C57.0993 37.669 56.1994 38.2289 55.1289 38.285C52.9399 38.3997 51.2045 36.7763 51.0764 34.3317C50.9483 31.887 52.5044 30.0911 54.6934 29.9764ZM54.9622 31.4363C53.5721 31.5092 52.5896 32.6342 52.6742 34.2479C52.7588 35.8617 53.8535 36.8778 55.2436 36.805C56.6337 36.7321 57.6161 35.6072 57.5316 33.9934C57.447 32.3796 56.3523 31.3635 54.9622 31.4363ZM61.9482 28.01C61.341 28.0418 60.8694 27.6019 60.8376 26.9948C60.8057 26.3876 61.2297 25.9168 61.8368 25.8849C62.46 25.8523 62.9148 26.2771 62.9467 26.8842C62.9785 27.4914 62.5714 27.9774 61.9482 28.01ZM63.2571 37.6988L61.6593 37.7825L61.2406 29.7935L62.8384 29.7098L63.2571 37.6988ZM68.3911 29.2585C69.4617 29.2024 70.4152 29.6652 71.0827 30.4793L70.8106 25.2865L72.4084 25.2027L73.0364 37.1863L71.4386 37.27L71.3758 36.0717C70.797 36.9512 69.8971 37.511 68.8266 37.5671C66.6376 37.6819 64.9022 36.0585 64.7741 33.6138C64.646 31.1692 66.2021 29.3733 68.3911 29.2585ZM68.6599 30.7185C67.2698 30.7913 66.2874 31.9163 66.3719 33.5301C66.4565 35.1439 67.5512 36.16 68.9413 36.0871C70.3314 36.0143 71.3138 34.8893 71.2293 33.2755C71.1447 31.6617 70.05 30.6456 68.6599 30.7185ZM82.0677 36.8732C80.0704 36.9779 78.7689 35.6842 78.6257 32.952L78.4097 28.8296C78.2665 26.0974 79.5215 24.6697 81.7265 24.5542C83.9314 24.4386 85.3288 25.7273 85.472 28.4595L85.4971 28.9388L83.8993 29.0226L83.8742 28.5432C83.7737 26.6259 83.0178 25.9605 81.8035 26.0242C80.6051 26.087 79.907 26.8285 80.0075 28.7459L80.2235 32.8682C80.324 34.7856 81.0799 35.451 82.2942 35.3873C83.4766 35.3253 84.1899 34.567 84.0969 32.7934L84.0425 31.7548L81.8695 31.8687L81.7924 30.3987L85.5633 30.2011L85.894 36.5125L84.456 36.5878L84.3815 35.1658C83.9893 36.2438 83.1861 36.8146 82.0677 36.8732ZM89.4602 32.6565C89.544 34.2543 90.3057 35.0315 91.4881 34.9696C92.6545 34.9084 93.3308 34.0559 93.247 32.4581L93.0201 28.128L94.6179 28.0443L95.0366 36.0333L93.4388 36.117L93.3718 34.8388C92.9259 35.8075 92.105 36.3472 91.0664 36.4016C89.3568 36.4912 88.0039 35.4406 87.8792 33.0598L87.6355 28.4102L89.2333 28.3265L89.4602 32.6565ZM98.9525 35.8281L97.3547 35.9118L96.7266 23.9283L98.3244 23.8445L98.9525 35.8281ZM102.868 35.6229L101.27 35.7066L100.642 23.7231L102.24 23.6393L102.868 35.6229ZM105.474 25.7289C104.867 25.7607 104.396 25.3208 104.364 24.7137C104.332 24.1065 104.756 23.6357 105.363 23.6038C105.986 23.5712 106.441 23.996 106.473 24.6031C106.505 25.2103 106.098 25.6963 105.474 25.7289ZM106.783 35.4177L105.185 35.5014L104.767 27.5124L106.365 27.4287L106.783 35.4177ZM113.031 35.0902L110.794 35.2075L107.66 27.3608L109.321 27.2737L111.846 33.8706L113.667 27.0459L115.329 26.9589L113.031 35.0902ZM124.099 31.0495L117.836 31.3777C118.1 32.7578 119.038 33.5257 120.38 33.4554C121.355 33.4043 121.971 32.9394 122.253 32.2037L123.979 32.1132C123.57 33.7849 122.227 34.7685 120.39 34.8648C118.121 34.9837 116.369 33.3612 116.241 30.9165C116.113 28.4719 117.685 26.6751 119.954 26.5562C122.223 26.4373 123.974 28.0599 124.103 30.5045C124.113 30.6963 124.106 30.8729 124.099 31.0495ZM120.028 27.9623C118.734 28.0301 117.913 28.8743 117.791 30.2265L122.489 29.9803C122.227 28.6482 121.306 27.8953 120.028 27.9623ZM127.223 26.3355L127.299 27.7735C127.819 26.7048 128.765 26.0945 129.979 26.0309C130.171 26.0208 130.363 26.0267 130.493 26.052L130.584 27.7936C130.34 27.7263 130.05 27.6934 129.731 27.7102C128.197 27.7905 127.345 28.6683 127.432 30.314L127.642 34.3245L126.044 34.4083L125.625 26.4192L127.223 26.3355ZM139.171 33.8806C136.982 33.9953 135.246 32.3719 135.118 29.9272C134.99 27.4826 136.546 25.6867 138.735 25.572C139.806 25.5159 140.759 25.9786 141.427 26.7928L141.364 25.5944L142.962 25.5107L143.384 33.5636C143.511 35.9923 141.857 37.7453 139.668 37.86C137.575 37.9697 135.952 36.6608 135.556 34.6147L137.17 34.5302C137.441 35.7176 138.344 36.4553 139.591 36.39C141.061 36.313 141.867 35.1813 141.786 33.6474L141.72 32.3851C141.141 33.2646 140.241 33.8245 139.171 33.8806ZM139.285 32.4005C140.676 32.3277 141.658 31.2027 141.573 29.5889C141.489 27.9751 140.394 26.959 139.004 27.0319C137.614 27.1047 136.632 28.2297 136.716 29.8435C136.801 31.4573 137.895 32.4734 139.285 32.4005ZM152.758 29.5475L146.495 29.8757C146.76 31.2558 147.697 32.0238 149.039 31.9534C150.014 31.9024 150.63 31.4375 150.912 30.7017L152.638 30.6113C152.229 32.283 150.886 33.2666 149.049 33.3629C146.78 33.4818 145.029 31.8592 144.901 29.4146C144.773 26.9699 146.345 25.1732 148.614 25.0543C150.882 24.9354 152.634 26.5579 152.762 29.0026C152.772 29.1943 152.765 29.3709 152.758 29.5475ZM148.687 26.4603C147.393 26.5282 146.572 27.3723 146.451 28.7245L151.148 28.4783C150.886 27.1462 149.965 26.3933 148.687 26.4603ZM156.605 30.0669C156.657 31.0575 157.111 31.4663 158.038 31.4177C158.39 31.3993 158.707 31.3346 158.973 31.2245L159.048 32.6466C158.765 32.7575 158.275 32.8794 157.811 32.9036C156.278 32.984 155.126 32.4195 155.013 30.2465L154.806 26.2999L153.496 26.3686L153.422 24.9625L154.732 24.8938L154.608 22.5291L156.206 22.4453L156.33 24.8101L158.631 24.6895L158.704 26.0956L156.404 26.2162L156.605 30.0669ZM166.418 29.5526C166.47 30.5433 166.924 30.9521 167.85 30.9035C168.202 30.8851 168.519 30.8204 168.786 30.7103L168.86 32.1323C168.578 32.2433 168.087 32.3651 167.624 32.3894C166.09 32.4698 164.939 31.9053 164.825 29.7322L164.618 25.7856L163.308 25.8543L163.234 24.4482L164.544 24.3796L164.421 22.0148L166.018 21.9311L166.142 24.2958L168.443 24.1753L168.517 25.5813L166.216 25.7019L166.418 29.5526ZM174.075 32.0513C171.758 32.1727 169.943 30.5535 169.815 28.1088C169.687 25.6642 171.323 23.8641 173.64 23.7427C175.957 23.6213 177.772 25.2405 177.9 27.6851C178.028 30.1298 176.392 31.9299 174.075 32.0513ZM173.998 30.5813C175.388 30.5085 176.387 29.3827 176.302 27.7689C176.218 26.1551 175.107 25.1398 173.717 25.2127C172.327 25.2855 171.328 26.4113 171.413 28.0251C171.497 29.6389 172.608 30.6542 173.998 30.5813ZM188.89 29.6406L188.967 31.1106L183.471 31.3987L182.843 19.4151L184.441 19.3314L184.992 29.845L188.89 29.6406ZM190.64 21.2656C190.033 21.2974 189.561 20.8575 189.529 20.2503C189.497 19.6432 189.921 19.1723 190.528 19.1405C191.152 19.1078 191.606 19.5326 191.638 20.1398C191.67 20.747 191.263 21.2329 190.64 21.2656ZM191.949 30.9544L190.351 31.0381L189.932 23.0491L191.53 22.9653L191.949 30.9544ZM195.864 30.7492L194.266 30.8329L193.638 18.8494L195.236 18.7656L195.864 30.7492ZM199.779 30.544L198.182 30.6277L197.554 18.6442L199.151 18.5604L199.779 30.544ZM202.386 20.65C201.779 20.6818 201.307 20.2419 201.275 19.6347C201.243 19.0276 201.667 18.5567 202.275 18.5249C202.898 18.4923 203.353 18.917 203.384 19.5242C203.416 20.1314 203.009 20.6173 202.386 20.65ZM203.695 30.3388L202.097 30.4225L201.678 22.4335L203.276 22.3497L203.695 30.3388ZM207.819 34.1281L206.222 34.2118L205.594 22.2283L207.191 22.1445L207.254 23.3429C207.833 22.4634 208.733 21.9035 209.803 21.8474C211.992 21.7327 213.728 23.3561 213.856 25.8008C213.984 28.2454 212.428 30.0413 210.239 30.156C209.168 30.2121 208.215 29.7494 207.547 28.9352L207.819 34.1281ZM209.97 28.6961C211.36 28.6232 212.343 27.4983 212.258 25.8845C212.174 24.2707 211.079 23.2546 209.689 23.3275C208.299 23.4003 207.316 24.5253 207.401 26.1391C207.485 27.7528 208.58 28.769 209.97 28.6961ZM217.121 25.9661C217.205 27.5639 217.966 28.3411 219.149 28.2792C220.315 28.218 220.991 27.3655 220.908 25.7677L220.681 21.4376L222.278 21.3539L222.697 29.3429L221.099 29.4266L221.032 28.1484C220.586 29.1171 219.766 29.6568 218.727 29.7112C217.017 29.8008 215.664 28.7502 215.54 26.3694L215.296 21.7198L216.894 21.6361L217.121 25.9661ZM226.917 26.382C226.969 27.3726 227.423 27.7814 228.35 27.7329C228.701 27.7144 229.018 27.6498 229.285 27.5396L229.36 28.9617C229.077 29.0726 228.587 29.1945 228.123 29.2187C226.589 29.2991 225.438 28.7346 225.324 26.5616L225.118 22.615L223.807 22.6837L223.734 21.2776L225.044 21.2089L224.92 18.8442L226.518 18.7604L226.642 21.1252L228.943 21.0046L229.016 22.4107L226.715 22.5313L226.917 26.382ZM237.012 19.4762C237.14 21.9208 234.501 22.3155 234.544 24.364L234.547 24.7164L233.077 24.7934L233.054 24.362C232.929 21.9653 235.507 21.3335 235.414 19.5599C235.361 18.5533 234.66 18.0133 233.478 18.0752C232.407 18.1313 231.559 18.7526 231.639 20.2865L231.663 20.7339L230.049 20.8185L230.017 20.2113C229.896 17.9105 231.499 16.7049 233.401 16.6053C235.478 16.4964 236.91 17.5269 237.012 19.4762ZM234.03 28.9092C233.486 28.9377 233.015 28.4978 232.987 27.9705C232.959 27.4272 233.382 26.9404 233.925 26.912C234.484 26.8826 234.956 27.3226 234.984 27.8658C235.012 28.3931 234.589 28.8799 234.03 28.9092Z" fill="black"/>
<path d="M17.7141 43.4983C17.7298 43.7983 17.4993 44.0543 17.1993 44.07C16.8992 44.0857 16.6433 43.8553 16.6276 43.5552C16.6118 43.2552 16.8423 42.9992 17.1423 42.9835C17.4424 42.9678 17.6983 43.1983 17.7141 43.4983ZM19.8871 43.3844C19.9028 43.6844 19.6723 43.9404 19.3723 43.9561C19.0723 43.9719 18.8163 43.7414 18.8006 43.4413C18.7848 43.1413 19.0153 42.8853 19.3154 42.8696C19.6154 42.8539 19.8714 43.0844 19.8871 43.3844ZM22.0601 43.2705C22.0758 43.5706 21.8453 43.8265 21.5453 43.8422C21.2453 43.858 20.9893 43.6275 20.9736 43.3275C20.9579 43.0274 21.1883 42.7715 21.4884 42.7557C21.7884 42.74 22.0444 42.9705 22.0601 43.2705ZM24.2331 43.1566C24.2488 43.4567 24.0184 43.7126 23.7183 43.7284C23.4183 43.7441 23.1623 43.5136 23.1466 43.2136C23.1309 42.9136 23.3614 42.6576 23.6614 42.6419C23.9614 42.6261 24.2174 42.8566 24.2331 43.1566ZM26.4061 43.0428C26.4219 43.3428 26.1914 43.5988 25.8913 43.6145C25.5913 43.6302 25.3353 43.3997 25.3196 43.0997C25.3039 42.7997 25.5344 42.5437 25.8344 42.528C26.1344 42.5123 26.3904 42.7427 26.4061 43.0428ZM28.5791 42.9289C28.5949 43.2289 28.3644 43.4849 28.0644 43.5006C27.7643 43.5163 27.5084 43.2858 27.4926 42.9858C27.4769 42.6858 27.7074 42.4298 28.0074 42.4141C28.3075 42.3984 28.5634 42.6288 28.5791 42.9289ZM30.7522 42.815C30.7679 43.115 30.5374 43.371 30.2374 43.3867C29.9373 43.4024 29.6814 43.172 29.6657 42.8719C29.6499 42.5719 29.8804 42.3159 30.1804 42.3002C30.4805 42.2845 30.7364 42.515 30.7522 42.815ZM32.9252 42.7011C32.9409 43.0011 32.7104 43.2571 32.4104 43.2728C32.1104 43.2886 31.8544 43.0581 31.8387 42.758C31.8229 42.458 32.0534 42.202 32.3535 42.1863C32.6535 42.1706 32.9095 42.4011 32.9252 42.7011ZM35.0982 42.5872C35.1139 42.8873 34.8834 43.1432 34.5834 43.159C34.2834 43.1747 34.0274 42.9442 34.0117 42.6442C33.996 42.3441 34.2264 42.0882 34.5265 42.0724C34.8265 42.0567 35.0825 42.2872 35.0982 42.5872ZM37.2712 42.4733C37.2869 42.7734 37.0565 43.0293 36.7564 43.0451C36.4564 43.0608 36.2004 42.8303 36.1847 42.5303C36.169 42.2303 36.3995 41.9743 36.6995 41.9586C36.9995 41.9428 37.2555 42.1733 37.2712 42.4733ZM39.4442 42.3595C39.46 42.6595 39.2295 42.9155 38.9294 42.9312C38.6294 42.9469 38.3734 42.7164 38.3577 42.4164C38.342 42.1164 38.5725 41.8604 38.8725 41.8447C39.1725 41.829 39.4285 42.0594 39.4442 42.3595ZM41.6172 42.2456C41.633 42.5456 41.4025 42.8016 41.1025 42.8173C40.8024 42.833 40.5465 42.6025 40.5307 42.3025C40.515 42.0025 40.7455 41.7465 41.0455 41.7308C41.3456 41.7151 41.6015 41.9455 41.6172 42.2456ZM43.7903 42.1317C43.806 42.4317 43.5755 42.6877 43.2755 42.7034C42.9754 42.7191 42.7195 42.4887 42.7038 42.1886C42.688 41.8886 42.9185 41.6326 43.2185 41.6169C43.5186 41.6012 43.7745 41.8317 43.7903 42.1317ZM45.9633 42.0178C45.979 42.3178 45.7485 42.5738 45.4485 42.5895C45.1485 42.6053 44.8925 42.3748 44.8768 42.0748C44.861 41.7747 45.0915 41.5188 45.3916 41.503C45.6916 41.4873 45.9476 41.7178 45.9633 42.0178ZM48.1363 41.9039C48.152 42.204 47.9215 42.4599 47.6215 42.4757C47.3215 42.4914 47.0655 42.2609 47.0498 41.9609C47.0341 41.6608 47.2645 41.4049 47.5646 41.3891C47.8646 41.3734 48.1206 41.6039 48.1363 41.9039ZM50.3093 41.79C50.325 42.0901 50.0946 42.346 49.7945 42.3618C49.4945 42.3775 49.2385 42.147 49.2228 41.847C49.2071 41.547 49.4376 41.291 49.7376 41.2753C50.0376 41.2595 50.2936 41.49 50.3093 41.79ZM52.4823 41.6762C52.4981 41.9762 52.2676 42.2322 51.9675 42.2479C51.6675 42.2636 51.4115 42.0331 51.3958 41.7331C51.3801 41.4331 51.6106 41.1771 51.9106 41.1614C52.2106 41.1457 52.4666 41.3761 52.4823 41.6762ZM54.6553 41.5623C54.6711 41.8623 54.4406 42.1183 54.1406 42.134C53.8405 42.1497 53.5846 41.9193 53.5688 41.6192C53.5531 41.3192 53.7836 41.0632 54.0836 41.0475C54.3836 41.0318 54.6396 41.2622 54.6553 41.5623ZM56.8284 41.4484C56.8441 41.7484 56.6136 42.0044 56.3136 42.0201C56.0135 42.0358 55.7576 41.8054 55.7419 41.5053C55.7261 41.2053 55.9566 40.9493 56.2566 40.9336C56.5567 40.9179 56.8126 41.1484 56.8284 41.4484ZM59.0014 41.3345C59.0171 41.6345 58.7866 41.8905 58.4866 41.9062C58.1866 41.922 57.9306 41.6915 57.9149 41.3915C57.8991 41.0914 58.1296 40.8355 58.4297 40.8197C58.7297 40.804 58.9857 41.0345 59.0014 41.3345ZM61.1744 41.2206C61.1901 41.5207 60.9596 41.7766 60.6596 41.7924C60.3596 41.8081 60.1036 41.5776 60.0879 41.2776C60.0722 40.9775 60.3026 40.7216 60.6027 40.7058C60.9027 40.6901 61.1587 40.9206 61.1744 41.2206ZM63.3474 41.1067C63.3631 41.4068 63.1327 41.6627 62.8326 41.6785C62.5326 41.6942 62.2766 41.4637 62.2609 41.1637C62.2452 40.8637 62.4757 40.6077 62.7757 40.592C63.0757 40.5762 63.3317 40.8067 63.3474 41.1067ZM65.5204 40.9929C65.5362 41.2929 65.3057 41.5489 65.0056 41.5646C64.7056 41.5803 64.4496 41.3498 64.4339 41.0498C64.4182 40.7498 64.6487 40.4938 64.9487 40.4781C65.2487 40.4624 65.5047 40.6928 65.5204 40.9929ZM67.6934 40.879C67.7092 41.179 67.4787 41.435 67.1787 41.4507C66.8786 41.4664 66.6227 41.236 66.6069 40.9359C66.5912 40.6359 66.8217 40.3799 67.1217 40.3642C67.4217 40.3485 67.6777 40.5789 67.6934 40.879ZM69.8665 40.7651C69.8822 41.0651 69.6517 41.3211 69.3517 41.3368C69.0516 41.3525 68.7957 41.1221 68.78 40.822C68.7642 40.522 68.9947 40.266 69.2947 40.2503C69.5948 40.2346 69.8507 40.4651 69.8665 40.7651ZM72.0395 40.6512C72.0552 40.9512 71.8247 41.2072 71.5247 41.2229C71.2247 41.2387 70.9687 41.0082 70.953 40.7082C70.9372 40.4081 71.1677 40.1522 71.4678 40.1364C71.7678 40.1207 72.0238 40.3512 72.0395 40.6512ZM74.2125 40.5373C74.2282 40.8374 73.9977 41.0933 73.6977 41.1091C73.3977 41.1248 73.1417 40.8943 73.126 40.5943C73.1103 40.2942 73.3407 40.0383 73.6408 40.0225C73.9408 40.0068 74.1968 40.2373 74.2125 40.5373ZM76.3855 40.4234C76.4012 40.7235 76.1708 40.9794 75.8707 40.9952C75.5707 41.0109 75.3147 40.7804 75.299 40.4804C75.2833 40.1804 75.5138 39.9244 75.8138 39.9087C76.1138 39.8929 76.3698 40.1234 76.3855 40.4234ZM78.5585 40.3096C78.5743 40.6096 78.3438 40.8656 78.0437 40.8813C77.7437 40.897 77.4877 40.6665 77.472 40.3665C77.4563 40.0665 77.6868 39.8105 77.9868 39.7948C78.2868 39.7791 78.5428 40.0095 78.5585 40.3096ZM80.7315 40.1957C80.7473 40.4957 80.5168 40.7517 80.2168 40.7674C79.9167 40.7831 79.6608 40.5527 79.645 40.2526C79.6293 39.9526 79.8598 39.6966 80.1598 39.6809C80.4598 39.6652 80.7158 39.8957 80.7315 40.1957ZM82.9046 40.0818C82.9203 40.3818 82.6898 40.6378 82.3898 40.6535C82.0897 40.6692 81.8338 40.4388 81.8181 40.1387C81.8023 39.8387 82.0328 39.5827 82.3328 39.567C82.6329 39.5513 82.8888 39.7818 82.9046 40.0818ZM85.0776 39.9679C85.0933 40.2679 84.8628 40.5239 84.5628 40.5396C84.2628 40.5554 84.0068 40.3249 83.9911 40.0249C83.9753 39.7248 84.2058 39.4689 84.5059 39.4531C84.8059 39.4374 85.0619 39.6679 85.0776 39.9679ZM87.2506 39.854C87.2663 40.1541 87.0358 40.41 86.7358 40.4258C86.4358 40.4415 86.1798 40.211 86.1641 39.911C86.1484 39.6109 86.3788 39.355 86.6789 39.3393C86.9789 39.3235 87.2349 39.554 87.2506 39.854ZM89.4236 39.7402C89.4393 40.0402 89.2089 40.2962 88.9088 40.3119C88.6088 40.3276 88.3528 40.0971 88.3371 39.7971C88.3214 39.4971 88.5519 39.2411 88.8519 39.2254C89.1519 39.2096 89.4079 39.4401 89.4236 39.7402ZM91.5966 39.6263C91.6124 39.9263 91.3819 40.1823 91.0818 40.198C90.7818 40.2137 90.5258 39.9832 90.5101 39.6832C90.4944 39.3832 90.7249 39.1272 91.0249 39.1115C91.3249 39.0958 91.5809 39.3262 91.5966 39.6263ZM93.7696 39.5124C93.7854 39.8124 93.5549 40.0684 93.2549 40.0841C92.9548 40.0998 92.6989 39.8694 92.6831 39.5693C92.6674 39.2693 92.8979 39.0133 93.1979 38.9976C93.4979 38.9819 93.7539 39.2124 93.7696 39.5124ZM95.9427 39.3985C95.9584 39.6985 95.7279 39.9545 95.4279 39.9702C95.1278 39.986 94.8719 39.7555 94.8562 39.4554C94.8404 39.1554 95.0709 38.8994 95.3709 38.8837C95.671 38.868 95.9269 39.0985 95.9427 39.3985ZM98.1157 39.2846C98.1314 39.5847 97.9009 39.8406 97.6009 39.8563C97.3009 39.8721 97.0449 39.6416 97.0292 39.3416C97.0134 39.0415 97.2439 38.7856 97.544 38.7698C97.844 38.7541 98.1 38.9846 98.1157 39.2846ZM100.289 39.1707C100.304 39.4708 100.074 39.7267 99.7739 39.7425C99.4739 39.7582 99.2179 39.5277 99.2022 39.2277C99.1865 38.9276 99.4169 38.6717 99.717 38.656C100.017 38.6402 100.273 38.8707 100.289 39.1707ZM102.462 39.0569C102.477 39.3569 102.247 39.6129 101.947 39.6286C101.647 39.6443 101.391 39.4138 101.375 39.1138C101.359 38.8138 101.59 38.5578 101.89 38.5421C102.19 38.5263 102.446 38.7568 102.462 39.0569ZM104.635 38.943C104.65 39.243 104.42 39.499 104.12 39.5147C103.82 39.5304 103.564 39.2999 103.548 38.9999C103.532 38.6999 103.763 38.4439 104.063 38.4282C104.363 38.4125 104.619 38.6429 104.635 38.943ZM106.808 38.8291C106.823 39.1291 106.593 39.3851 106.293 39.4008C105.993 39.4165 105.737 39.1861 105.721 38.886C105.706 38.586 105.936 38.33 106.236 38.3143C106.536 38.2986 106.792 38.5291 106.808 38.8291ZM108.981 38.7152C108.996 39.0152 108.766 39.2712 108.466 39.2869C108.166 39.3027 107.91 39.0722 107.894 38.7721C107.879 38.4721 108.109 38.2161 108.409 38.2004C108.709 38.1847 108.965 38.4152 108.981 38.7152ZM111.154 38.6013C111.17 38.9014 110.939 39.1573 110.639 39.173C110.339 39.1888 110.083 38.9583 110.067 38.6583C110.052 38.3582 110.282 38.1023 110.582 38.0865C110.882 38.0708 111.138 38.3013 111.154 38.6013ZM113.327 38.4874C113.343 38.7875 113.112 39.0434 112.812 39.0592C112.512 39.0749 112.256 38.8444 112.24 38.5444C112.225 38.2443 112.455 37.9884 112.755 37.9727C113.055 37.9569 113.311 38.1874 113.327 38.4874ZM115.5 38.3736C115.516 38.6736 115.285 38.9296 114.985 38.9453C114.685 38.961 114.429 38.7305 114.413 38.4305C114.398 38.1305 114.628 37.8745 114.928 37.8588C115.228 37.843 115.484 38.0735 115.5 38.3736ZM117.673 38.2597C117.689 38.5597 117.458 38.8157 117.158 38.8314C116.858 38.8471 116.602 38.6166 116.586 38.3166C116.571 38.0166 116.801 37.7606 117.101 37.7449C117.401 37.7292 117.657 37.9596 117.673 38.2597ZM119.846 38.1458C119.862 38.4458 119.631 38.7018 119.331 38.7175C119.031 38.7332 118.775 38.5028 118.759 38.2027C118.744 37.9027 118.974 37.6467 119.274 37.631C119.574 37.6153 119.83 37.8458 119.846 38.1458ZM122.019 38.0319C122.035 38.3319 121.804 38.5879 121.504 38.6036C121.204 38.6194 120.948 38.3889 120.932 38.0888C120.917 37.7888 121.147 37.5328 121.447 37.5171C121.747 37.5014 122.003 37.7319 122.019 38.0319ZM124.192 37.918C124.208 38.2181 123.977 38.474 123.677 38.4897C123.377 38.5055 123.121 38.275 123.105 37.975C123.09 37.6749 123.32 37.419 123.62 37.4032C123.92 37.3875 124.176 37.618 124.192 37.918ZM126.365 37.8041C126.381 38.1042 126.15 38.3601 125.85 38.3759C125.55 38.3916 125.294 38.1611 125.278 37.8611C125.263 37.5611 125.493 37.3051 125.793 37.2894C126.093 37.2736 126.349 37.5041 126.365 37.8041ZM128.538 37.6903C128.554 37.9903 128.323 38.2463 128.023 38.262C127.723 38.2777 127.467 38.0472 127.451 37.7472C127.436 37.4472 127.666 37.1912 127.966 37.1755C128.266 37.1598 128.522 37.3902 128.538 37.6903ZM130.711 37.5764C130.727 37.8764 130.496 38.1324 130.196 38.1481C129.896 38.1638 129.64 37.9333 129.624 37.6333C129.609 37.3333 129.839 37.0773 130.139 37.0616C130.439 37.0459 130.695 37.2763 130.711 37.5764ZM132.884 37.4625C132.9 37.7625 132.669 38.0185 132.369 38.0342C132.069 38.0499 131.813 37.8195 131.797 37.5194C131.782 37.2194 132.012 36.9634 132.312 36.9477C132.612 36.932 132.868 37.1625 132.884 37.4625ZM135.057 37.3486C135.073 37.6486 134.842 37.9046 134.542 37.9203C134.242 37.9361 133.986 37.7056 133.97 37.4056C133.955 37.1055 134.185 36.8495 134.485 36.8338C134.785 36.8181 135.041 37.0486 135.057 37.3486ZM145.922 36.7792C145.938 37.0792 145.707 37.3352 145.407 37.3509C145.107 37.3666 144.851 37.1362 144.836 36.8361C144.82 36.5361 145.05 36.2801 145.35 36.2644C145.65 36.2487 145.906 36.4792 145.922 36.7792ZM148.095 36.6653C148.111 36.9653 147.88 37.2213 147.58 37.237C147.28 37.2528 147.024 37.0223 147.009 36.7223C146.993 36.4222 147.223 36.1663 147.523 36.1505C147.823 36.1348 148.079 36.3653 148.095 36.6653ZM150.268 36.5514C150.284 36.8515 150.053 37.1074 149.753 37.1232C149.453 37.1389 149.197 36.9084 149.182 36.6084C149.166 36.3083 149.396 36.0524 149.696 36.0366C149.996 36.0209 150.252 36.2514 150.268 36.5514ZM152.441 36.4375C152.457 36.7376 152.226 36.9935 151.926 37.0093C151.626 37.025 151.37 36.7945 151.355 36.4945C151.339 36.1945 151.569 35.9385 151.869 35.9228C152.169 35.907 152.425 36.1375 152.441 36.4375ZM154.614 36.3237C154.63 36.6237 154.399 36.8797 154.099 36.8954C153.799 36.9111 153.543 36.6806 153.528 36.3806C153.512 36.0806 153.742 35.8246 154.042 35.8089C154.342 35.7932 154.598 36.0236 154.614 36.3237ZM156.787 36.2098C156.803 36.5098 156.572 36.7658 156.272 36.7815C155.972 36.7972 155.716 36.5668 155.701 36.2667C155.685 35.9667 155.915 35.7107 156.215 35.695C156.515 35.6793 156.771 35.9097 156.787 36.2098ZM158.96 36.0959C158.976 36.3959 158.745 36.6519 158.445 36.6676C158.145 36.6833 157.889 36.4529 157.874 36.1528C157.858 35.8528 158.088 35.5968 158.388 35.5811C158.688 35.5654 158.944 35.7959 158.96 36.0959ZM161.133 35.982C161.149 36.282 160.918 36.538 160.618 36.5537C160.318 36.5695 160.062 36.339 160.047 36.039C160.031 35.7389 160.261 35.483 160.561 35.4672C160.861 35.4515 161.117 35.682 161.133 35.982ZM163.306 35.8681C163.322 36.1682 163.091 36.4241 162.791 36.4399C162.491 36.4556 162.235 36.2251 162.22 35.9251C162.204 35.625 162.434 35.3691 162.734 35.3533C163.034 35.3376 163.29 35.5681 163.306 35.8681ZM165.479 35.7542C165.495 36.0543 165.264 36.3102 164.964 36.326C164.664 36.3417 164.408 36.1112 164.393 35.8112C164.377 35.5112 164.607 35.2552 164.907 35.2395C165.207 35.2237 165.463 35.4542 165.479 35.7542ZM167.652 35.6404C167.668 35.9404 167.437 36.1964 167.137 36.2121C166.837 36.2278 166.581 35.9973 166.566 35.6973C166.55 35.3973 166.78 35.1413 167.08 35.1256C167.381 35.1099 167.636 35.3403 167.652 35.6404ZM169.825 35.5265C169.841 35.8265 169.61 36.0825 169.31 36.0982C169.01 36.1139 168.754 35.8835 168.739 35.5834C168.723 35.2834 168.953 35.0274 169.254 35.0117C169.554 34.996 169.81 35.2264 169.825 35.5265ZM171.998 35.4126C172.014 35.7126 171.783 35.9686 171.483 35.9843C171.183 36 170.927 35.7696 170.912 35.4695C170.896 35.1695 171.126 34.9135 171.427 34.8978C171.727 34.8821 171.983 35.1126 171.998 35.4126ZM174.171 35.2987C174.187 35.5987 173.957 35.8547 173.656 35.8704C173.356 35.8862 173.1 35.6557 173.085 35.3557C173.069 35.0556 173.3 34.7997 173.6 34.7839C173.9 34.7682 174.156 34.9987 174.171 35.2987ZM176.344 35.1848C176.36 35.4849 176.13 35.7408 175.829 35.7566C175.529 35.7723 175.273 35.5418 175.258 35.2418C175.242 34.9417 175.473 34.6858 175.773 34.67C176.073 34.6543 176.329 34.8848 176.344 35.1848ZM178.517 35.0709C178.533 35.371 178.303 35.6269 178.003 35.6427C177.702 35.6584 177.447 35.4279 177.431 35.1279C177.415 34.8279 177.646 34.5719 177.946 34.5562C178.246 34.5404 178.502 34.7709 178.517 35.0709ZM180.69 34.9571C180.706 35.2571 180.476 35.5131 180.176 35.5288C179.875 35.5445 179.62 35.314 179.604 35.014C179.588 34.714 179.819 34.458 180.119 34.4423C180.419 34.4266 180.675 34.657 180.69 34.9571ZM182.863 34.8432C182.879 35.1432 182.649 35.3992 182.349 35.4149C182.049 35.4306 181.793 35.2002 181.777 34.9001C181.761 34.6001 181.992 34.3441 182.292 34.3284C182.592 34.3127 182.848 34.5432 182.863 34.8432ZM185.036 34.7293C185.052 35.0293 184.822 35.2853 184.522 35.301C184.222 35.3167 183.966 35.0863 183.95 34.7862C183.934 34.4862 184.165 34.2302 184.465 34.2145C184.765 34.1988 185.021 34.4293 185.036 34.7293ZM187.209 34.6154C187.225 34.9154 186.995 35.1714 186.695 35.1871C186.395 35.2029 186.139 34.9724 186.123 34.6724C186.107 34.3723 186.338 34.1164 186.638 34.1006C186.938 34.0849 187.194 34.3154 187.209 34.6154ZM189.382 34.5015C189.398 34.8016 189.168 35.0575 188.868 35.0733C188.568 35.089 188.312 34.8585 188.296 34.5585C188.28 34.2584 188.511 34.0025 188.811 33.9868C189.111 33.971 189.367 34.2015 189.382 34.5015ZM191.555 34.3877C191.571 34.6877 191.341 34.9437 191.041 34.9594C190.741 34.9751 190.485 34.7446 190.469 34.4446C190.453 34.1446 190.684 33.8886 190.984 33.8729C191.284 33.8571 191.54 34.0876 191.555 34.3877ZM193.728 34.2738C193.744 34.5738 193.514 34.8298 193.214 34.8455C192.914 34.8612 192.658 34.6307 192.642 34.3307C192.626 34.0307 192.857 33.7747 193.157 33.759C193.457 33.7433 193.713 33.9737 193.728 34.2738ZM195.901 34.1599C195.917 34.4599 195.687 34.7159 195.387 34.7316C195.087 34.7473 194.831 34.5169 194.815 34.2168C194.799 33.9168 195.03 33.6608 195.33 33.6451C195.63 33.6294 195.886 33.8599 195.901 34.1599ZM198.074 34.046C198.09 34.346 197.86 34.602 197.56 34.6177C197.26 34.6335 197.004 34.403 196.988 34.1029C196.972 33.8029 197.203 33.5469 197.503 33.5312C197.803 33.5155 198.059 33.746 198.074 34.046ZM200.247 33.9321C200.263 34.2322 200.033 34.4881 199.733 34.5038C199.433 34.5196 199.177 34.2891 199.161 33.9891C199.145 33.689 199.376 33.4331 199.676 33.4173C199.976 33.4016 200.232 33.6321 200.247 33.9321ZM202.42 33.8182C202.436 34.1183 202.206 34.3742 201.906 34.39C201.606 34.4057 201.35 34.1752 201.334 33.8752C201.318 33.5751 201.549 33.3192 201.849 33.3035C202.149 33.2877 202.405 33.5182 202.42 33.8182ZM204.593 33.7044C204.609 34.0044 204.379 34.2604 204.079 34.2761C203.779 34.2918 203.523 34.0613 203.507 33.7613C203.491 33.4613 203.722 33.2053 204.022 33.1896C204.322 33.1738 204.578 33.4043 204.593 33.7044ZM211.113 33.3627C211.128 33.6627 210.898 33.9187 210.598 33.9344C210.298 33.9502 210.042 33.7197 210.026 33.4196C210.01 33.1196 210.241 32.8636 210.541 32.8479C210.841 32.8322 211.097 33.0627 211.113 33.3627ZM213.286 33.2488C213.301 33.5489 213.071 33.8048 212.771 33.8205C212.471 33.8363 212.215 33.6058 212.199 33.3058C212.183 33.0057 212.414 32.7498 212.714 32.734C213.014 32.7183 213.27 32.9488 213.286 33.2488ZM215.459 33.1349C215.474 33.435 215.244 33.6909 214.944 33.7067C214.644 33.7224 214.388 33.4919 214.372 33.1919C214.356 32.8918 214.587 32.6359 214.887 32.6202C215.187 32.6044 215.443 32.8349 215.459 33.1349ZM217.632 33.0211C217.647 33.3211 217.417 33.5771 217.117 33.5928C216.817 33.6085 216.561 33.378 216.545 33.078C216.529 32.778 216.76 32.522 217.06 32.5063C217.36 32.4905 217.616 32.721 217.632 33.0211ZM219.805 32.9072C219.82 33.2072 219.59 33.4632 219.29 33.4789C218.99 33.4946 218.734 33.2641 218.718 32.9641C218.702 32.6641 218.933 32.4081 219.233 32.3924C219.533 32.3767 219.789 32.6071 219.805 32.9072ZM221.978 32.7933C221.993 33.0933 221.763 33.3493 221.463 33.365C221.163 33.3807 220.907 33.1503 220.891 32.8502C220.875 32.5502 221.106 32.2942 221.406 32.2785C221.706 32.2628 221.962 32.4933 221.978 32.7933ZM224.151 32.6794C224.166 32.9794 223.936 33.2354 223.636 33.2511C223.336 33.2669 223.08 33.0364 223.064 32.7363C223.048 32.4363 223.279 32.1803 223.579 32.1646C223.879 32.1489 224.135 32.3794 224.151 32.6794ZM226.324 32.5655C226.339 32.8656 226.109 33.1215 225.809 33.1372C225.509 33.153 225.253 32.9225 225.237 32.6225C225.221 32.3224 225.452 32.0665 225.752 32.0507C226.052 32.035 226.308 32.2655 226.324 32.5655ZM228.497 32.4516C228.512 32.7517 228.282 33.0076 227.982 33.0234C227.682 33.0391 227.426 32.8086 227.41 32.5086C227.394 32.2086 227.625 31.9526 227.925 31.9369C228.225 31.9211 228.481 32.1516 228.497 32.4516ZM230.67 32.3378C230.685 32.6378 230.455 32.8938 230.155 32.9095C229.855 32.9252 229.599 32.6947 229.583 32.3947C229.567 32.0947 229.798 31.8387 230.098 31.823C230.398 31.8073 230.654 32.0377 230.67 32.3378ZM232.843 32.2239C232.858 32.5239 232.628 32.7799 232.328 32.7956C232.028 32.8113 231.772 32.5808 231.756 32.2808C231.74 31.9808 231.971 31.7248 232.271 31.7091C232.571 31.6934 232.827 31.9238 232.843 32.2239ZM235.016 32.11C235.031 32.41 234.801 32.666 234.501 32.6817C234.201 32.6974 233.945 32.467 233.929 32.1669C233.913 31.8669 234.144 31.6109 234.444 31.5952C234.744 31.5795 235 31.81 235.016 32.11ZM237.189 31.9961C237.204 32.2961 236.974 32.5521 236.674 32.5678C236.374 32.5836 236.118 32.3531 236.102 32.0531C236.087 31.753 236.317 31.497 236.617 31.4813C236.917 31.4656 237.173 31.6961 237.189 31.9961Z" fill="black"/>
<path d="M19.4312 50.5102L19.6986 55.6132L22.493 50.3497L24.0309 50.2691L21.1482 55.4531L24.7482 60.746L23.0705 60.8339L19.7103 55.8369L19.9807 60.9958L18.5826 61.0691L18.0331 50.5835L19.4312 50.5102ZM27.7025 60.7313C26.4582 60.7965 25.2942 60.2547 25.2217 58.8706C25.0634 55.8507 29.8541 57.1138 29.7706 55.5199C29.7347 54.8349 29.0578 54.4918 28.205 54.5365C27.2962 54.5842 26.6913 55.0785 26.7389 55.9872L25.2849 56.0634C25.1904 54.2599 26.6085 53.4987 28.1464 53.4181C29.6563 53.3389 31.0866 53.8808 31.1716 55.5026L31.428 60.3959L30.0579 60.4677L29.9964 59.2933C29.5834 60.2402 28.7091 60.6786 27.7025 60.7313ZM26.6434 58.712C26.6749 59.3132 27.2075 59.5796 27.9206 59.5423C28.9971 59.4859 29.9707 58.804 29.907 57.5876L29.8806 57.0843C28.7223 57.7198 26.5818 57.5376 26.6434 58.712ZM34.3864 53.2312L34.5491 56.335L37.3923 53.0737L39.2517 52.9762L36.1333 56.3361L39.8697 59.9535L38.0942 60.0465L34.56 56.5447L34.7527 60.2216L33.3547 60.2949L32.9883 53.3045L34.3864 53.2312ZM45.3879 59.6643L43.9898 59.7375L43.4403 49.2519L48.0819 49.0087L48.1493 50.2949L44.9058 50.4649L45.3879 59.6643ZM51.8998 60.1081C51.3998 61.8026 50.7756 62.9989 49.056 63.089C48.6645 63.1095 48.2694 63.0601 47.9993 62.9902L47.9349 61.7598C48.2049 61.8298 48.5301 61.8829 48.8657 61.8653C49.7464 61.8191 50.1947 61.2769 50.5849 60.163L47.4101 52.5487L48.8081 52.4754L51.1424 58.2271L52.8486 52.2637L54.2467 52.1904L51.8998 60.1081ZM61.2166 58.8347L59.8185 58.908L59.5195 53.2038L57.017 53.335C57.0747 54.9722 57.0627 56.0803 56.9904 56.8412C56.7884 58.6042 56.1975 59.0978 55.079 59.1564L54.8273 59.1696L54.7599 57.8833L54.8718 57.8775C55.2493 57.8577 55.5451 57.6179 55.6571 57.0793C55.7933 56.4693 55.8282 55.2618 55.6773 52.1154L60.8502 51.8443L61.2166 58.8347ZM68.9712 58.4283L67.5731 58.5016L67.2742 52.7974L64.7716 52.9286C64.8294 54.5658 64.8174 55.6739 64.7451 56.4348C64.5431 58.1978 63.9521 58.6914 62.8336 58.75L62.582 58.7632L62.5146 57.4769L62.6264 57.4711C63.0039 57.4513 63.2998 57.2115 63.4117 56.6729C63.548 56.0629 63.5828 54.8554 63.432 51.709L68.6049 51.4379L68.9712 58.4283ZM77.341 57.9897L75.9989 58.06L75.7065 52.4817L72.7973 58.2278L71.0217 58.3209L70.6554 51.3305L71.9975 51.2601L72.2899 56.8385L75.1991 51.0923L76.9747 50.9993L77.341 57.9897ZM79.3908 57.8823L79.0244 50.8919L82.4916 50.7101C83.7779 50.6427 84.6902 51.1977 84.7539 52.4141C84.7928 53.1551 84.4542 53.6495 83.8662 53.9326C84.6483 54.144 85.167 54.6776 85.2131 55.5584C85.2835 56.9005 84.4238 57.6185 82.9698 57.6947L79.3908 57.8823ZM82.1419 51.7939L80.4222 51.8841L80.5175 53.7016L82.2371 53.6114C83.1039 53.566 83.4506 53.2254 83.4198 52.6382C83.3869 52.0091 83.0087 51.7485 82.1419 51.7939ZM82.5724 54.6593L80.5732 54.7641L80.6772 56.7494L82.6765 56.6446C83.4594 56.6036 83.8465 56.2328 83.8128 55.5897C83.7791 54.9466 83.3554 54.6183 82.5724 54.6593ZM93.2931 54.1255L87.8127 54.4127C88.0442 55.6203 88.8645 56.2923 90.0389 56.2307C90.8917 56.186 91.4311 55.7792 91.6778 55.1354L93.1877 55.0563C92.8298 56.519 91.6552 57.3797 90.0474 57.464C88.0621 57.568 86.5297 56.1483 86.4176 54.0092C86.3055 51.8701 87.6811 50.298 89.6664 50.1939C91.6517 50.0899 93.1841 51.5096 93.2962 53.6487C93.305 53.8165 93.2991 53.971 93.2931 54.1255ZM89.7309 51.4242C88.5984 51.4836 87.8801 52.2222 87.7739 53.4054L91.8843 53.19C91.6549 52.0244 90.8494 51.3656 89.7309 51.4242ZM96.6042 60.4849L95.2061 60.5582L94.6566 50.0726L96.0547 49.9993L96.1096 51.0479C96.616 50.2783 97.4035 49.7885 98.3402 49.7394C100.256 49.639 101.774 51.0595 101.886 53.1985C101.998 55.3376 100.637 56.909 98.7212 57.0094C97.7845 57.0585 96.9502 56.6536 96.3661 55.9412L96.6042 60.4849ZM98.486 55.7319C99.7024 55.6682 100.562 54.6839 100.488 53.2718C100.414 51.8597 99.4562 50.9706 98.2398 51.0344C97.0235 51.0981 96.1638 52.0825 96.2378 53.4945C96.3119 54.9066 97.2697 55.7957 98.486 55.7319ZM108.217 56.3716L106.819 56.4448L106.452 49.4544L112.408 49.1423L112.774 56.1327L111.376 56.206L111.077 50.5018L107.918 50.6674L108.217 56.3716ZM117.874 56.0057C115.846 56.1119 114.258 54.6951 114.146 52.556C114.034 50.417 115.465 48.8419 117.492 48.7356C119.52 48.6294 121.108 50.0462 121.22 52.1853C121.332 54.3243 119.901 55.8994 117.874 56.0057ZM117.806 54.7194C119.022 54.6557 119.896 53.6706 119.822 52.2585C119.748 50.8465 118.776 49.9581 117.56 50.0219C116.344 50.0856 115.47 51.0707 115.544 52.4827C115.618 53.8948 116.59 54.7832 117.806 54.7194ZM124.34 55.5265L122.942 55.5998L122.576 48.6094L128.532 48.2973L128.898 55.2877L127.5 55.361L127.201 49.6568L124.041 49.8224L124.34 55.5265ZM132.991 55.2134C131.746 55.2786 130.582 54.7368 130.51 53.3527C130.352 50.3328 135.142 51.5958 135.059 50.002C135.023 49.317 134.346 48.9739 133.493 49.0186C132.584 49.0662 131.979 49.5606 132.027 50.4693L130.573 50.5455C130.478 48.742 131.897 47.9807 133.434 47.9001C134.944 47.821 136.375 48.3629 136.46 49.9847L136.716 54.878L135.346 54.9498L135.284 53.7754C134.871 54.7223 133.997 55.1606 132.991 55.2134ZM131.931 53.1941C131.963 53.7952 132.496 54.0617 133.209 54.0244C134.285 53.9679 135.259 53.2861 135.195 52.0697L135.169 51.5664C134.01 52.2019 131.87 52.0197 131.931 53.1941ZM144.347 54.478L142.949 54.5513L142.65 48.8471L140.147 48.9783C140.205 50.6155 140.193 51.7237 140.121 52.4845C139.919 54.2475 139.328 54.7411 138.209 54.7997L137.958 54.8129L137.89 53.5267L138.002 53.5208C138.38 53.501 138.675 53.2612 138.787 52.7226C138.924 52.1126 138.959 50.9052 138.808 47.7587L143.981 47.4876L144.347 54.478ZM19.42 77.0472L19.0536 70.0567L22.5209 69.875C23.8071 69.8076 24.7194 70.3626 24.7832 71.579C24.822 72.32 24.4834 72.8144 23.8954 73.0975C24.6776 73.3089 25.1962 73.8425 25.2424 74.7232C25.3127 76.0654 24.4531 76.7834 22.9991 76.8596L19.42 77.0472ZM22.1711 70.9588L20.4515 71.0489L20.5467 72.8665L22.2664 72.7763C23.1332 72.7309 23.4798 72.3903 23.4491 71.8031C23.4161 71.174 23.0379 70.9134 22.1711 70.9588ZM22.6017 73.8242L20.6024 73.929L20.7065 75.9143L22.7057 75.8095C23.4887 75.7685 23.8758 75.3977 23.8421 74.7546C23.8084 74.1115 23.3846 73.7832 22.6017 73.8242ZM36.3952 76.1575L34.9971 76.2308L34.515 67.0314L31.7189 67.178C31.8888 70.6879 31.9464 72.8578 31.8247 74.2801C31.6978 75.871 31.1804 76.4308 29.8802 76.499L29.6704 76.5099L29.603 75.2237L29.6869 75.2193C30.2322 75.1907 30.4236 74.8302 30.5481 74.2629C30.6998 73.4138 30.6129 70.6846 30.3652 65.9591L35.8457 65.6719L36.3952 76.1575ZM44.7708 75.7186L43.4287 75.7889L43.1363 70.2106L40.2271 75.9567L38.4515 76.0498L38.0851 69.0593L39.4273 68.989L39.7196 74.5674L42.6289 68.8212L44.4045 68.7282L44.7708 75.7186ZM52.5247 75.3122L51.1266 75.3855L50.8277 69.6813L48.3251 69.8125C48.3829 71.4497 48.3709 72.5578 48.2986 73.3187C48.0966 75.0816 47.5056 75.5752 46.3871 75.6339L46.1355 75.6471L46.0681 74.3608L46.1799 74.355C46.5574 74.3352 46.8533 74.0954 46.9652 73.5568C47.1015 72.9468 47.1363 71.7393 46.9855 68.5929L52.1584 68.3218L52.5247 75.3122ZM60.8945 74.8736L59.5524 74.9439L59.26 69.3656L56.3508 75.1117L54.5752 75.2047L54.2088 68.2143L55.551 68.144L55.8433 73.7223L58.7526 67.9762L60.5282 67.8832L60.8945 74.8736ZM64.3423 74.6929L62.9442 74.7661L62.5779 67.7757L68.5337 67.4636L68.9001 74.454L67.502 74.5273L67.203 68.8231L64.0434 68.9887L64.3423 74.6929ZM74.1447 74.9642C73.6447 76.6587 73.0204 77.855 71.3008 77.9452C70.9093 77.9657 70.5142 77.9163 70.2442 77.8463L70.1797 76.616C70.4497 76.686 70.775 76.739 71.1105 76.7214C71.9913 76.6753 72.4395 76.1331 72.8298 75.0191L69.6549 67.4048L71.053 67.3316L73.3872 73.0833L75.0934 67.1198L76.4915 67.0466L74.1447 74.9642ZM80.924 73.8239L79.5259 73.8971L79.227 68.193L76.9621 68.3117L76.8947 67.0254L82.8225 66.7148L82.89 68.001L80.6251 68.1197L80.924 73.8239ZM90.7799 73.3073L89.4378 73.3777L89.1454 67.7993L86.2362 73.5455L84.4606 73.6385L84.0943 66.6481L85.4364 66.5778L85.7288 72.1561L88.638 66.41L90.4136 66.3169L90.7799 73.3073ZM94.2277 73.1266L92.8296 73.1999L92.4633 66.2095L93.8614 66.1362L94.0094 68.9604L95.1978 68.8981C95.3843 67.1079 96.7201 65.8462 98.5097 65.7524C100.523 65.6469 102.111 67.0637 102.223 69.2028C102.335 71.3419 100.904 72.917 98.8907 73.0225C97.0732 73.1177 95.5974 71.9754 95.2504 70.1711L94.0761 70.2326L94.2277 73.1266ZM98.8233 71.7362C100.04 71.6725 100.899 70.6881 100.825 69.2761C100.751 67.864 99.7934 66.9749 98.5771 67.0387C97.3607 67.1024 96.5011 68.0868 96.5751 69.4988C96.6491 70.9109 97.6069 71.8 98.8233 71.7362ZM108.611 64.3959C108.723 66.535 106.414 66.8803 106.452 68.6728L106.454 68.9811L105.168 69.0485L105.148 68.671C105.038 66.5739 107.295 66.021 107.213 64.4692C107.167 63.5884 106.553 63.1158 105.519 63.1701C104.582 63.2192 103.84 63.7628 103.91 65.1049L103.93 65.4964L102.518 65.5704L102.491 65.0391C102.385 63.0259 103.788 61.971 105.451 61.8838C107.269 61.7886 108.522 62.6902 108.611 64.3959ZM106.002 72.6498C105.526 72.6747 105.114 72.2898 105.089 71.8284C105.065 71.3531 105.435 70.9271 105.91 70.9022C106.399 70.8765 106.812 71.2615 106.837 71.7368C106.861 72.1982 106.491 72.6241 106.002 72.6498Z" fill="black" fill-opacity="0.48"/>
<g clip-path="url(#clip0_1304_15121)">
<path d="M114.569 110.263C115.574 108.542 115.39 106.563 114.157 105.842C112.924 105.122 111.109 105.933 110.104 107.655C109.098 109.376 109.282 111.355 110.515 112.076C111.748 112.796 113.563 111.985 114.569 110.263Z" fill="#FFE4C2"/>
<path d="M114.58 106.671C114.448 106.754 114.273 106.714 114.19 106.582L106.444 94.2464C106.362 94.1146 106.402 93.9391 106.534 93.8564C106.665 93.7737 106.841 93.8138 106.924 93.9456L114.669 106.281C114.752 106.413 114.712 106.588 114.58 106.671Z" fill="#FFE4C2"/>
<path d="M113.458 99.7396C113.441 99.7502 113.423 99.7583 113.405 99.7664C113.257 99.8189 113.096 99.7431 113.041 99.5972C112.261 97.4449 110.722 96.855 109.484 96.3794C109.305 96.3117 109.133 96.2458 108.97 96.1777C107.587 95.6031 106.598 94.4639 106.555 94.4172C106.454 94.2975 106.467 94.122 106.585 94.0177C106.703 93.9135 106.883 93.9278 106.985 94.0475C106.995 94.058 107.931 95.1337 109.186 95.6546C109.345 95.7218 109.512 95.7844 109.687 95.8512C110.963 96.3397 112.707 97.0113 113.574 99.403C113.618 99.5321 113.568 99.6704 113.458 99.7396Z" fill="#FFE4C2"/>
</g>
<g clip-path="url(#clip1_1304_15121)">
<path d="M80.0635 102.527C83.4996 103.03 86.5772 101.443 86.9375 98.9814C87.2979 96.5201 84.8045 94.1171 81.3685 93.614C77.9324 93.1109 74.8549 94.6984 74.4945 97.1596C74.1342 99.6208 76.6275 102.024 80.0635 102.527Z" fill="#FFE4C2"/>
<path d="M85.8748 100.205C85.6553 100.046 85.6058 99.7361 85.7647 99.5166L100.646 78.9665C100.805 78.747 101.114 78.6974 101.334 78.8564C101.553 79.0153 101.603 79.325 101.444 79.5445L86.5629 100.095C86.404 100.314 86.0943 100.364 85.8748 100.205Z" fill="#FFE4C2"/>
<path d="M96.3404 93.8759C96.3125 93.8556 96.2875 93.8314 96.2624 93.8072C96.0816 93.6032 96.0991 93.2935 96.299 93.1097C99.2675 90.447 99.2174 87.5756 99.1797 85.2669C99.1721 84.9328 99.1667 84.6126 99.1704 84.305C99.1977 81.6965 100.393 79.3562 100.441 79.2568C100.568 79.0142 100.86 78.9216 101.106 79.0446C101.351 79.1677 101.445 79.4667 101.318 79.7093C101.308 79.7322 100.18 81.9452 100.156 84.3131C100.151 84.6138 100.159 84.9232 100.165 85.2503C100.207 87.629 100.259 90.8847 96.9599 93.8438C96.7802 93.9996 96.524 94.0088 96.3404 93.8759Z" fill="#FFE4C2"/>
</g>
<g clip-path="url(#clip2_1304_15121)">
<path d="M261.74 33.7068C263.804 33.4123 265.307 31.9748 265.096 30.496C264.885 29.0173 263.04 28.0573 260.976 28.3519C258.911 28.6465 257.409 30.084 257.62 31.5627C257.831 33.0414 259.675 34.0014 261.74 33.7068Z" fill="#FFE4C2"/>
<path d="M264.692 31.3813C264.538 31.3271 264.457 31.1572 264.511 31.0038L269.587 16.6384C269.641 16.4849 269.811 16.4037 269.965 16.4579C270.118 16.5122 270.199 16.6821 270.145 16.8355L265.069 31.2009C265.015 31.3544 264.845 31.4355 264.692 31.3813Z" fill="#FFE4C2"/>
<path d="M270.979 36.9715C273.043 36.6769 274.545 35.2394 274.334 33.7607C274.123 32.2819 272.279 31.322 270.214 31.6166C268.15 31.9111 266.648 33.3486 266.859 34.8274C267.07 36.3061 268.914 37.2661 270.979 36.9715Z" fill="#FFE4C2"/>
<path d="M273.929 34.645C273.775 34.5908 273.694 34.4209 273.748 34.2674L278.824 19.902C278.878 19.7486 279.048 19.6674 279.201 19.7216C279.355 19.7758 279.436 19.9457 279.382 20.0992L274.306 34.4646C274.252 34.618 274.085 34.7002 273.929 34.645Z" fill="#FFE4C2"/>
<path d="M279.005 20.2797L269.767 17.0159C269.614 16.9617 269.533 16.7918 269.587 16.6384C269.641 16.4849 269.811 16.4037 269.965 16.4579L279.202 19.7217C279.355 19.7759 279.437 19.9458 279.382 20.0993C279.328 20.2527 279.161 20.3349 279.005 20.2797Z" fill="#FFE4C2"/>
<path d="M278.823 20.7929L269.586 17.5291C269.432 17.4749 269.351 17.305 269.405 17.1516C269.46 16.9981 269.629 16.9169 269.783 16.9711L279.02 20.2349C279.174 20.2891 279.255 20.459 279.201 20.6125C279.147 20.7659 278.979 20.8481 278.823 20.7929Z" fill="#FFE4C2"/>
<path d="M278.533 21.6161L269.295 18.3524C269.142 18.2981 269.061 18.1282 269.115 17.9748C269.169 17.8213 269.339 17.7402 269.492 17.7944L278.73 21.0581C278.883 21.1124 278.964 21.2823 278.91 21.4357C278.856 21.5892 278.689 21.6713 278.533 21.6161Z" fill="#FFE4C2"/>
</g>
<rect x="183.371" y="44.1807" width="112" height="44" rx="8" transform="rotate(4.39422 183.371 44.1807)" fill="#FFB53D"/>
<path d="M195.966 73.2312L194.371 73.1086L195.291 61.1439L200.651 61.5558L200.538 63.0235L196.773 62.7342L196.471 66.6586L199.758 66.9111L199.645 68.3788L196.359 68.1263L195.966 73.2312ZM202.785 63.9824C202.178 63.9358 201.767 63.4389 201.814 62.8327C201.86 62.2265 202.341 61.8141 202.948 61.8607C203.57 61.9085 203.966 62.3883 203.92 62.9945C203.873 63.6007 203.407 64.0302 202.785 63.9824ZM202.836 73.7591L201.24 73.6365L201.853 65.66L203.449 65.7826L202.836 73.7591ZM212.442 71.7532C212.366 72.7423 212.764 73.2061 213.689 73.2772C214.04 73.3042 214.363 73.2809 214.642 73.206L214.532 74.6258C214.238 74.6995 213.736 74.7572 213.273 74.7216C211.742 74.6039 210.673 73.896 210.84 71.7264L211.142 67.786L207.76 67.5261L207.255 74.0987L205.66 73.9761L206.165 67.4035L204.793 67.2981L204.901 65.8942L206.273 65.9996L206.369 64.7553C206.512 62.8888 207.82 61.9463 209.527 62.0774C209.942 62.1093 210.337 62.1878 210.633 62.3068L210.52 63.7745C210.24 63.6567 209.909 63.5831 209.558 63.5561C208.633 63.485 208.038 63.9207 207.96 64.9258L207.868 66.1222L211.25 66.3821L211.422 64.1487L213.017 64.2713L212.846 66.5047L215.143 66.6812L215.035 68.0851L212.738 67.9086L212.442 71.7532ZM222.156 70.8629C222.277 69.2835 221.605 68.4295 220.408 68.3375C219.212 68.2456 218.417 68.9868 218.295 70.5662L217.961 74.9213L216.365 74.7988L217.285 62.834L218.88 62.9566L218.477 68.2051C219.042 67.3179 219.958 66.8908 221.011 66.9717C222.75 67.1053 223.956 68.3213 223.776 70.6664L223.417 75.3406L221.821 75.218L222.156 70.8629ZM231.733 63.9443L234.126 64.1282L235.886 76.2988L234.275 76.175L233.879 73.1919L230.592 72.9393L229.745 75.8269L228.133 75.7031L231.733 63.9443ZM231.024 71.4962L233.672 71.6997L232.831 65.3125L231.024 71.4962ZM241.131 76.7019L238.898 76.5303L236.799 68.3454L238.458 68.4729L240.113 75.3398L242.797 68.8063L244.456 68.9338L241.131 76.7019ZM252.627 74.1191L246.373 73.6385C246.458 75.0411 247.289 75.9234 248.629 76.0264C249.602 76.1011 250.273 75.7194 250.648 75.0261L252.371 75.1585C251.75 76.7636 250.292 77.5663 248.457 77.4253C246.192 77.2512 244.664 75.4168 244.852 72.976C245.039 70.5352 246.83 68.9557 249.095 69.1298C251.36 69.3038 252.888 71.1383 252.701 73.5791C252.686 73.7706 252.656 73.9448 252.627 74.1191ZM248.987 70.5336C247.695 70.4343 246.772 71.1658 246.478 72.4911L251.168 72.8515C251.079 71.4968 250.263 70.6317 248.987 70.5336ZM259.914 73.7643C260.035 72.185 259.363 71.331 258.166 71.239C256.97 71.1471 256.175 71.8883 256.053 73.4677L255.719 77.8228L254.123 77.7003L254.736 69.7238L256.332 69.8464L256.235 71.1066C256.801 70.2194 257.716 69.7923 258.769 69.8732C260.508 70.0068 261.714 71.2228 261.534 73.5679L261.175 78.2421L259.579 78.1195L259.914 73.7643ZM265.204 74.8769C265.081 76.4722 265.737 77.341 266.917 77.4317C268.082 77.5212 268.862 76.7627 268.985 75.1674L269.317 70.8442L270.912 70.9668L270.299 78.9433L268.704 78.8207L268.802 77.5444C268.235 78.4477 267.352 78.8772 266.315 78.7975C264.608 78.6664 263.401 77.4504 263.584 75.0734L263.941 70.4311L265.536 70.5537L265.204 74.8769ZM280.105 76.2306L273.852 75.75C273.936 77.1527 274.767 78.0349 276.107 78.1379C277.08 78.2127 277.752 77.831 278.126 77.1376L279.849 77.27C279.228 78.8752 277.77 79.6778 275.935 79.5369C273.67 79.3628 272.142 77.5283 272.33 75.0875C272.517 72.6467 274.308 71.0672 276.573 71.2413C278.838 71.4154 280.366 73.2498 280.179 75.6907C280.164 75.8821 280.135 76.0563 280.105 76.2306ZM276.465 72.6452C275.173 72.5459 274.25 73.2773 273.956 74.6027L278.646 74.9631C278.557 73.6083 277.741 72.7432 276.465 72.6452Z" fill="black"/>
<path d="M194.014 76.4993C193.991 76.7988 193.73 77.023 193.43 77C193.131 76.977 192.906 76.7155 192.929 76.4159C192.953 76.1163 193.214 75.8922 193.514 75.9152C193.813 75.9382 194.037 76.1997 194.014 76.4993ZM196.184 76.666C196.161 76.9655 195.899 77.1897 195.6 77.1667C195.3 77.1437 195.076 76.8822 195.099 76.5826C195.122 76.2831 195.384 76.0589 195.683 76.0819C195.983 76.1049 196.207 76.3664 196.184 76.666ZM198.353 76.8327C198.33 77.1323 198.069 77.3564 197.769 77.3334C197.47 77.3104 197.246 77.0489 197.269 76.7493C197.292 76.4498 197.553 76.2256 197.853 76.2486C198.152 76.2716 198.377 76.5331 198.353 76.8327ZM200.523 76.9994C200.5 77.299 200.239 77.5232 199.939 77.5001C199.639 77.4771 199.415 77.2156 199.438 76.9161C199.461 76.6165 199.723 76.3923 200.022 76.4153C200.322 76.4384 200.546 76.6999 200.523 76.9994ZM202.693 77.1661C202.67 77.4657 202.408 77.6899 202.109 77.6669C201.809 77.6438 201.585 77.3823 201.608 77.0828C201.631 76.7832 201.892 76.559 202.192 76.5821C202.492 76.6051 202.716 76.8666 202.693 77.1661ZM204.862 77.3329C204.839 77.6324 204.578 77.8566 204.278 77.8336C203.979 77.8106 203.754 77.5491 203.778 77.2495C203.801 76.9499 204.062 76.7258 204.362 76.7488C204.661 76.7718 204.885 77.0333 204.862 77.3329ZM207.032 77.4996C207.009 77.7991 206.747 78.0233 206.448 78.0003C206.148 77.9773 205.924 77.7158 205.947 77.4162C205.97 77.1167 206.232 76.8925 206.531 76.9155C206.831 76.9385 207.055 77.2 207.032 77.4996ZM209.202 77.6663C209.178 77.9659 208.917 78.19 208.617 78.167C208.318 78.144 208.094 77.8825 208.117 77.5829C208.14 77.2834 208.401 77.0592 208.701 77.0822C209 77.1052 209.225 77.3667 209.202 77.6663ZM211.371 77.833C211.348 78.1326 211.087 78.3568 210.787 78.3337C210.487 78.3107 210.263 78.0492 210.286 77.7497C210.309 77.4501 210.571 77.2259 210.87 77.2489C211.17 77.272 211.394 77.5335 211.371 77.833ZM213.541 77.9997C213.518 78.2993 213.256 78.5235 212.957 78.5005C212.657 78.4774 212.433 78.2159 212.456 77.9164C212.479 77.6168 212.74 77.3926 213.04 77.4157C213.34 77.4387 213.564 77.7002 213.541 77.9997ZM215.71 78.1665C215.687 78.466 215.426 78.6902 215.126 78.6672C214.827 78.6442 214.602 78.3827 214.626 78.0831C214.649 77.7835 214.91 77.5594 215.21 77.5824C215.509 77.6054 215.733 77.8669 215.71 78.1665ZM217.88 78.3332C217.857 78.6327 217.595 78.8569 217.296 78.8339C216.996 78.8109 216.772 78.5494 216.795 78.2498C216.818 77.9503 217.08 77.7261 217.379 77.7491C217.679 77.7721 217.903 78.0336 217.88 78.3332ZM220.05 78.4999C220.027 78.7995 219.765 79.0237 219.465 79.0006C219.166 78.9776 218.942 78.7161 218.965 78.4165C218.988 78.117 219.249 77.8928 219.549 77.9158C219.848 77.9388 220.073 78.2004 220.05 78.4999ZM222.219 78.6666C222.196 78.9662 221.935 79.1904 221.635 79.1674C221.335 79.1443 221.111 78.8828 221.134 78.5833C221.157 78.2837 221.419 78.0595 221.718 78.0826C222.018 78.1056 222.242 78.3671 222.219 78.6666ZM224.389 78.8334C224.366 79.1329 224.104 79.3571 223.805 79.3341C223.505 79.3111 223.281 79.0496 223.304 78.75C223.327 78.4504 223.588 78.2263 223.888 78.2493C224.188 78.2723 224.412 78.5338 224.389 78.8334ZM226.558 79.0001C226.535 79.2996 226.274 79.5238 225.974 79.5008C225.675 79.4778 225.451 79.2163 225.474 78.9167C225.497 78.6172 225.758 78.393 226.058 78.416C226.357 78.439 226.581 78.7005 226.558 79.0001ZM228.728 79.1668C228.705 79.4664 228.443 79.6905 228.144 79.6675C227.844 79.6445 227.62 79.383 227.643 79.0834C227.666 78.7839 227.928 78.5597 228.227 78.5827C228.527 78.6057 228.751 78.8672 228.728 79.1668ZM230.898 79.3335C230.875 79.6331 230.613 79.8573 230.313 79.8342C230.014 79.8112 229.79 79.5497 229.813 79.2502C229.836 78.9506 230.097 78.7264 230.397 78.7494C230.696 78.7725 230.921 79.034 230.898 79.3335ZM233.067 79.5002C233.044 79.7998 232.783 80.024 232.483 80.001C232.183 79.9779 231.959 79.7164 231.982 79.4169C232.005 79.1173 232.267 78.8931 232.566 78.9162C232.866 78.9392 233.09 79.2007 233.067 79.5002ZM235.237 79.667C235.214 79.9665 234.952 80.1907 234.653 80.1677C234.353 80.1447 234.129 79.8832 234.152 79.5836C234.175 79.284 234.436 79.0599 234.736 79.0829C235.036 79.1059 235.26 79.3674 235.237 79.667ZM237.406 79.8337C237.383 80.1332 237.122 80.3574 236.822 80.3344C236.523 80.3114 236.299 80.0499 236.322 79.7503C236.345 79.4508 236.606 79.2266 236.906 79.2496C237.205 79.2726 237.429 79.5341 237.406 79.8337ZM239.576 80.0004C239.553 80.3 239.291 80.5241 238.992 80.5011C238.692 80.4781 238.468 80.2166 238.491 79.917C238.514 79.6175 238.776 79.3933 239.075 79.4163C239.375 79.4393 239.599 79.7008 239.576 80.0004ZM241.746 80.1671C241.723 80.4667 241.461 80.6909 241.161 80.6678C240.862 80.6448 240.638 80.3833 240.661 80.0838C240.684 79.7842 240.945 79.56 241.245 79.583C241.544 79.6061 241.769 79.8676 241.746 80.1671ZM243.915 80.3338C243.892 80.6334 243.631 80.8576 243.331 80.8346C243.032 80.8115 242.807 80.55 242.83 80.2505C242.853 79.9509 243.115 79.7267 243.414 79.7498C243.714 79.7728 243.938 80.0343 243.915 80.3338ZM246.085 80.5006C246.062 80.8001 245.8 81.0243 245.501 81.0013C245.201 80.9783 244.977 80.7168 245 80.4172C245.023 80.1176 245.284 79.8935 245.584 79.9165C245.884 79.9395 246.108 80.201 246.085 80.5006ZM248.254 80.6673C248.231 80.9669 247.97 81.191 247.67 81.168C247.371 81.145 247.147 80.8835 247.17 80.5839C247.193 80.2844 247.454 80.0602 247.754 80.0832C248.053 80.1062 248.277 80.3677 248.254 80.6673ZM250.424 80.834C250.401 81.1336 250.139 81.3578 249.84 81.3347C249.54 81.3117 249.316 81.0502 249.339 80.7507C249.362 80.4511 249.624 80.2269 249.923 80.2499C250.223 80.273 250.447 80.5345 250.424 80.834ZM252.594 81.0007C252.571 81.3003 252.309 81.5245 252.009 81.5015C251.71 81.4784 251.486 81.2169 251.509 80.9174C251.532 80.6178 251.793 80.3936 252.093 80.4167C252.392 80.4397 252.617 80.7012 252.594 81.0007ZM254.763 81.1675C254.74 81.467 254.479 81.6912 254.179 81.6682C253.88 81.6452 253.655 81.3837 253.678 81.0841C253.701 80.7845 253.963 80.5604 254.262 80.5834C254.562 80.6064 254.786 80.8679 254.763 81.1675ZM256.933 81.3342C256.91 81.6337 256.648 81.8579 256.349 81.8349C256.049 81.8119 255.825 81.5504 255.848 81.2508C255.871 80.9513 256.132 80.7271 256.432 80.7501C256.732 80.7731 256.956 81.0346 256.933 81.3342ZM259.102 81.5009C259.079 81.8005 258.818 82.0246 258.518 82.0016C258.219 81.9786 257.995 81.7171 258.018 81.4175C258.041 81.118 258.302 80.8938 258.602 80.9168C258.901 80.9398 259.125 81.2013 259.102 81.5009ZM261.272 81.6676C261.249 81.9672 260.987 82.1914 260.688 82.1683C260.388 82.1453 260.164 81.8838 260.187 81.5843C260.21 81.2847 260.472 81.0605 260.771 81.0835C261.071 81.1066 261.295 81.3681 261.272 81.6676ZM263.442 81.8343C263.419 82.1339 263.157 82.3581 262.857 82.3351C262.558 82.312 262.334 82.0505 262.357 81.751C262.38 81.4514 262.641 81.2272 262.941 81.2503C263.24 81.2733 263.465 81.5348 263.442 81.8343ZM265.611 82.0011C265.588 82.3006 265.327 82.5248 265.027 82.5018C264.728 82.4788 264.503 82.2173 264.526 81.9177C264.549 81.6181 264.811 81.394 265.11 81.417C265.41 81.44 265.634 81.7015 265.611 82.0011ZM267.781 82.1678C267.758 82.4673 267.496 82.6915 267.197 82.6685C266.897 82.6455 266.673 82.384 266.696 82.0844C266.719 81.7849 266.98 81.5607 267.28 81.5837C267.58 81.6067 267.804 81.8682 267.781 82.1678ZM269.95 82.3345C269.927 82.6341 269.666 82.8582 269.366 82.8352C269.067 82.8122 268.843 82.5507 268.866 82.2511C268.889 81.9516 269.15 81.7274 269.45 81.7504C269.749 81.7734 269.973 82.0349 269.95 82.3345ZM272.12 82.5012C272.097 82.8008 271.835 83.025 271.536 83.0019C271.236 82.9789 271.012 82.7174 271.035 82.4179C271.058 82.1183 271.32 81.8941 271.619 81.9171C271.919 81.9402 272.143 82.2017 272.12 82.5012ZM274.29 82.6679C274.267 82.9675 274.005 83.1917 273.705 83.1687C273.406 83.1457 273.182 82.8841 273.205 82.5846C273.228 82.285 273.489 82.0608 273.789 82.0839C274.088 82.1069 274.313 82.3684 274.29 82.6679ZM276.459 82.8347C276.436 83.1342 276.175 83.3584 275.875 83.3354C275.576 83.3124 275.351 83.0509 275.374 82.7513C275.397 82.4518 275.659 82.2276 275.958 82.2506C276.258 82.2736 276.482 82.5351 276.459 82.8347ZM278.629 83.0014C278.606 83.301 278.344 83.5251 278.045 83.5021C277.745 83.4791 277.521 83.2176 277.544 82.918C277.567 82.6185 277.829 82.3943 278.128 82.4173C278.428 82.4403 278.652 82.7018 278.629 83.0014Z" fill="black"/>
<rect x="142.491" y="75.1807" width="75" height="44" rx="8" transform="rotate(7.16904 142.491 75.1807)" fill="#FF9E00"/>
<path d="M157.596 103.818L157.412 105.278L152.078 104.607L153.575 92.701L158.909 93.3719L158.726 94.8324L154.979 94.3611L154.528 97.9489L157.957 98.3802L157.773 99.8407L154.344 99.4094L153.849 103.346L157.596 103.818ZM161.204 102.062C161.005 103.65 161.617 104.549 162.792 104.697C163.951 104.843 164.767 104.123 164.967 102.535L165.508 98.2334L167.095 98.433L166.097 106.37L164.51 106.171L164.669 104.901C164.059 105.776 163.156 106.162 162.124 106.032C160.426 105.818 159.28 104.545 159.577 102.18L160.158 97.5604L161.746 97.7601L161.204 102.062ZM170.986 98.9224L170.806 100.351C171.508 99.3911 172.546 98.9573 173.752 99.1091C173.943 99.133 174.131 99.1729 174.254 99.2206L174.037 100.951C173.809 100.842 173.529 100.758 173.211 100.718C171.687 100.526 170.695 101.24 170.489 102.875L169.988 106.86L168.4 106.66L169.399 98.7227L170.986 98.9224ZM177.947 108.022C175.645 107.733 174.144 105.818 174.45 103.39C174.755 100.961 176.684 99.4778 178.985 99.7673C181.287 100.057 182.788 101.971 182.483 104.4C182.177 106.829 180.249 108.312 177.947 108.022ZM178.131 106.562C179.512 106.735 180.694 105.804 180.895 104.2C181.097 102.597 180.183 101.402 178.802 101.228C177.421 101.054 176.239 101.986 176.037 103.589C175.836 105.193 176.75 106.388 178.131 106.562ZM184.788 112.753L183.2 112.553L184.698 100.647L186.285 100.847L186.135 102.037C186.86 101.274 187.845 100.882 188.909 101.015C191.083 101.289 192.505 103.193 192.199 105.622C191.894 108.051 190.045 109.544 187.87 109.27C186.807 109.137 185.95 108.513 185.436 107.594L184.788 112.753ZM187.863 107.786C189.245 107.96 190.41 107.026 190.612 105.422C190.814 103.819 189.915 102.626 188.534 102.452C187.153 102.278 185.988 103.212 185.786 104.815C185.584 106.419 186.482 107.612 187.863 107.786ZM201.041 107.283L194.818 106.5C194.835 107.905 195.622 108.826 196.956 108.994C197.924 109.116 198.613 108.767 199.02 108.093L200.735 108.308C200.037 109.882 198.542 110.613 196.716 110.383C194.462 110.1 193.025 108.193 193.33 105.764C193.636 103.336 195.5 101.845 197.755 102.128C200.009 102.412 201.446 104.318 201.141 106.747C201.117 106.937 201.079 107.11 201.041 107.283ZM197.579 103.525C196.293 103.363 195.336 104.049 194.978 105.359L199.645 105.946C199.622 104.588 198.849 103.685 197.579 103.525Z" fill="black"/>
<path d="M151.557 107.977C151.52 108.275 151.248 108.486 150.95 108.448C150.652 108.411 150.44 108.139 150.478 107.841C150.515 107.543 150.787 107.331 151.085 107.369C151.384 107.406 151.595 107.678 151.557 107.977ZM153.716 108.248C153.679 108.546 153.407 108.757 153.109 108.72C152.811 108.682 152.599 108.41 152.637 108.112C152.674 107.814 152.946 107.603 153.244 107.64C153.543 107.678 153.754 107.95 153.716 108.248ZM155.875 108.52C155.838 108.818 155.566 109.029 155.268 108.991C154.97 108.954 154.758 108.682 154.796 108.384C154.833 108.086 155.105 107.875 155.403 107.912C155.702 107.95 155.913 108.222 155.875 108.52ZM158.034 108.791C157.997 109.089 157.725 109.301 157.427 109.263C157.129 109.226 156.917 108.954 156.955 108.655C156.992 108.357 157.264 108.146 157.562 108.184C157.861 108.221 158.072 108.493 158.034 108.791ZM160.193 109.063C160.156 109.361 159.884 109.572 159.586 109.535C159.288 109.497 159.076 109.225 159.114 108.927C159.151 108.629 159.423 108.418 159.721 108.455C160.02 108.493 160.231 108.765 160.193 109.063ZM162.352 109.334C162.315 109.632 162.043 109.844 161.745 109.806C161.447 109.769 161.235 109.497 161.273 109.199C161.31 108.9 161.582 108.689 161.88 108.727C162.179 108.764 162.39 109.036 162.352 109.334ZM164.511 109.606C164.474 109.904 164.202 110.115 163.904 110.078C163.606 110.04 163.394 109.768 163.432 109.47C163.469 109.172 163.741 108.961 164.039 108.998C164.337 109.036 164.549 109.308 164.511 109.606ZM166.67 109.877C166.633 110.176 166.361 110.387 166.063 110.349C165.765 110.312 165.553 110.04 165.591 109.742C165.628 109.444 165.9 109.232 166.198 109.27C166.496 109.307 166.708 109.579 166.67 109.877ZM168.829 110.149C168.792 110.447 168.52 110.658 168.222 110.621C167.924 110.583 167.712 110.311 167.75 110.013C167.787 109.715 168.059 109.504 168.357 109.541C168.655 109.579 168.867 109.851 168.829 110.149ZM170.988 110.421C170.951 110.719 170.679 110.93 170.381 110.892C170.082 110.855 169.871 110.583 169.909 110.285C169.946 109.987 170.218 109.775 170.516 109.813C170.814 109.85 171.026 110.122 170.988 110.421ZM173.147 110.692C173.11 110.99 172.838 111.201 172.54 111.164C172.241 111.126 172.03 110.854 172.068 110.556C172.105 110.258 172.377 110.047 172.675 110.084C172.973 110.122 173.185 110.394 173.147 110.692ZM175.306 110.964C175.269 111.262 174.997 111.473 174.699 111.436C174.4 111.398 174.189 111.126 174.227 110.828C174.264 110.53 174.536 110.319 174.834 110.356C175.132 110.394 175.344 110.666 175.306 110.964ZM177.465 111.235C177.428 111.533 177.156 111.745 176.858 111.707C176.559 111.67 176.348 111.398 176.386 111.099C176.423 110.801 176.695 110.59 176.993 110.628C177.291 110.665 177.503 110.937 177.465 111.235ZM179.624 111.507C179.587 111.805 179.315 112.016 179.017 111.979C178.718 111.941 178.507 111.669 178.545 111.371C178.582 111.073 178.854 110.862 179.152 110.899C179.45 110.937 179.662 111.209 179.624 111.507ZM181.783 111.778C181.746 112.076 181.474 112.288 181.176 112.25C180.877 112.213 180.666 111.941 180.704 111.643C180.741 111.344 181.013 111.133 181.311 111.171C181.609 111.208 181.821 111.48 181.783 111.778ZM188.26 112.593C188.223 112.891 187.951 113.102 187.652 113.065C187.354 113.027 187.143 112.755 187.181 112.457C187.218 112.159 187.49 111.948 187.788 111.985C188.086 112.023 188.298 112.295 188.26 112.593ZM190.419 112.865C190.382 113.163 190.11 113.374 189.811 113.336C189.513 113.299 189.302 113.027 189.34 112.729C189.377 112.431 189.649 112.219 189.947 112.257C190.245 112.294 190.457 112.566 190.419 112.865ZM192.578 113.136C192.541 113.434 192.269 113.645 191.97 113.608C191.672 113.57 191.461 113.298 191.499 113C191.536 112.702 191.808 112.491 192.106 112.528C192.404 112.566 192.616 112.838 192.578 113.136ZM194.737 113.408C194.7 113.706 194.428 113.917 194.129 113.88C193.831 113.842 193.62 113.57 193.658 113.272C193.695 112.974 193.967 112.763 194.265 112.8C194.563 112.838 194.775 113.11 194.737 113.408ZM196.896 113.679C196.859 113.977 196.587 114.189 196.288 114.151C195.99 114.114 195.779 113.842 195.817 113.543C195.854 113.245 196.126 113.034 196.424 113.072C196.722 113.109 196.934 113.381 196.896 113.679ZM199.055 113.951C199.018 114.249 198.746 114.46 198.447 114.423C198.149 114.385 197.938 114.113 197.976 113.815C198.013 113.517 198.285 113.306 198.583 113.343C198.881 113.381 199.093 113.653 199.055 113.951Z" fill="black"/>
<defs>
<clipPath id="clip0_1304_15121">
<rect width="9.68585" height="18.7098" fill="white" transform="translate(101 97.3311) rotate(-32.1248)"/>
</clipPath>
<clipPath id="clip1_1304_15121">
<rect width="16.8721" height="32.5911" fill="white" transform="translate(92.1147 72.1807) rotate(35.9092)"/>
</clipPath>
<clipPath id="clip2_1304_15121">
<rect width="16.946" height="19.5706" fill="white" transform="translate(263.52 14.1807) rotate(19.4593)"/>
</clipPath>
</defs>
</svg>
