<svg width="192" height="192" viewBox="0 0 192 192" fill="none" xmlns="http://www.w3.org/2000/svg">
<g clip-path="url(#clip0_682_952)">
<path d="M53.5957 135.043C44.7525 140.161 38.3999 135.896 38.3999 128.309C38.3999 120.233 38.3999 95.9997 38.3999 95.9997C38.3999 95.9997 38.3999 71.7665 38.3999 63.6901C38.3999 56.1034 44.7486 51.8381 53.5957 56.9565C67.3689 64.9262 108.684 88.8435 108.684 88.8435C114.178 92.0227 114.178 99.9728 108.684 103.152C108.684 103.156 67.3689 127.073 53.5957 135.043Z" fill="#00C1FF"/>
<path d="M99.0728 135.043C90.2296 140.161 83.877 135.896 83.877 128.309C83.877 120.233 83.877 95.9997 83.877 95.9997C83.877 95.9997 83.877 71.7665 83.877 63.6901C83.877 56.1034 90.2256 51.8381 99.0728 56.9565C112.543 64.7525 152.952 88.1445 152.952 88.1445C158.985 91.6357 158.985 100.364 152.952 103.855C152.948 103.855 112.543 127.247 99.0728 135.043Z" fill="#FEBA36"/>
<mask id="mask0_682_952" style="mask-type:alpha" maskUnits="userSpaceOnUse" x="83" y="54" width="75" height="84">
<path d="M99.0728 135.043C90.2296 140.161 83.877 135.896 83.877 128.309C83.877 120.233 83.877 95.9997 83.877 95.9997C83.877 95.9997 83.877 71.7665 83.877 63.6901C83.877 56.1034 90.2256 51.8381 99.0728 56.9565C112.543 64.7525 152.952 88.1445 152.952 88.1445C158.985 91.6357 158.985 100.364 152.952 103.855C152.948 103.855 112.543 127.247 99.0728 135.043Z" fill="#6FE4FF"/>
</mask>
<g mask="url(#mask0_682_952)">
<g filter="url(#filter0_f_682_952)">
<path d="M53.5957 135.043C44.7525 140.161 38.3999 135.896 38.3999 128.309C38.3999 120.233 38.3999 95.9997 38.3999 95.9997C38.3999 95.9997 38.3999 71.7665 38.3999 63.6901C38.3999 56.1034 44.7486 51.8381 53.5957 56.9565C67.3689 64.9262 108.684 88.8435 108.684 88.8435C114.178 92.0227 114.178 99.9728 108.684 103.152C108.684 103.156 67.3689 127.073 53.5957 135.043Z" fill="#FF8A00"/>
</g>
</g>
</g>
<defs>
<filter id="filter0_f_682_952" x="32.1599" y="48.4797" width="86.8848" height="95.0396" filterUnits="userSpaceOnUse" color-interpolation-filters="sRGB">
<feFlood flood-opacity="0" result="BackgroundImageFix"/>
<feBlend mode="normal" in="SourceGraphic" in2="BackgroundImageFix" result="shape"/>
<feGaussianBlur stdDeviation="3.12" result="effect1_foregroundBlur_682_952"/>
</filter>
<clipPath id="clip0_682_952">
<rect width="192" height="192" fill="white"/>
</clipPath>
</defs>
</svg>
