<svg width="32" height="32" viewBox="0 0 32 32" fill="none" xmlns="http://www.w3.org/2000/svg">
<path d="M4.08363 26.5856C1.70716 27.961 0 26.8148 0 24.776C0 22.6056 0 16.0933 0 16.0933C0 16.0933 0 9.58105 0 7.41064C0 5.37184 1.7061 4.22561 4.08363 5.60108C7.78495 7.74283 18.8878 14.1702 18.8878 14.1702C20.3641 15.0246 20.3641 17.161 18.8878 18.0154C18.8878 18.0164 7.78495 24.4438 4.08363 26.5856Z" fill="#00C1FF"/>
<path d="M16.3048 26.5856C13.9284 27.961 12.2212 26.8148 12.2212 24.776C12.2212 22.6056 12.2212 16.0933 12.2212 16.0933C12.2212 16.0933 12.2212 9.58105 12.2212 7.41064C12.2212 5.37184 13.9273 4.22561 16.3048 5.60108C19.9246 7.69614 30.7839 13.9824 30.7839 13.9824C32.4053 14.9206 32.4053 17.2661 30.7839 18.2043C30.7828 18.2043 19.9246 24.4905 16.3048 26.5856Z" fill="#FEBA36"/>
<mask id="mask0_684_969" style="mask-type:alpha" maskUnits="userSpaceOnUse" x="12" y="5" width="20" height="23">
<path d="M16.3048 26.5856C13.9284 27.961 12.2212 26.8148 12.2212 24.776C12.2212 22.6056 12.2212 16.0933 12.2212 16.0933C12.2212 16.0933 12.2212 9.58105 12.2212 7.41064C12.2212 5.37184 13.9273 4.22561 16.3048 5.60108C19.9246 7.69614 30.7839 13.9824 30.7839 13.9824C32.4053 14.9206 32.4053 17.2661 30.7839 18.2043C30.7829 18.2043 19.9246 24.4905 16.3048 26.5856Z" fill="#6FE4FF"/>
</mask>
<g mask="url(#mask0_684_969)">
<g filter="url(#filter0_f_684_969)">
<path d="M4.08363 26.5856C1.70716 27.961 0 26.8148 0 24.776C0 22.6056 0 16.0933 0 16.0933C0 16.0933 0 9.58105 0 7.41064C0 5.37184 1.7061 4.22561 4.08363 5.60108C7.78495 7.74283 18.8878 14.1702 18.8878 14.1702C20.3641 15.0246 20.3641 17.161 18.8878 18.0154C18.8878 18.0164 7.78495 24.4438 4.08363 26.5856Z" fill="#FF8A00"/>
</g>
</g>
<defs>
<filter id="filter0_f_684_969" x="-6.24" y="-1.24" width="32.4751" height="34.6665" filterUnits="userSpaceOnUse" color-interpolation-filters="sRGB">
<feFlood flood-opacity="0" result="BackgroundImageFix"/>
<feBlend mode="normal" in="SourceGraphic" in2="BackgroundImageFix" result="shape"/>
<feGaussianBlur stdDeviation="3.12" result="effect1_foregroundBlur_684_969"/>
</filter>
</defs>
</svg>
