<svg width="192" height="192" viewBox="0 0 192 192" fill="none" xmlns="http://www.w3.org/2000/svg">
<g clip-path="url(#clip0_45_11904)">
<rect width="192" height="192" fill="white"/>
<path d="M53.5957 135.043C44.7525 140.162 38.3999 135.896 38.3999 128.31C38.3999 120.233 38.3999 96 38.3999 96C38.3999 96 38.3999 71.7668 38.3999 63.6903C38.3999 56.1036 44.7486 51.8383 53.5957 56.9567C67.3689 64.9265 108.684 88.8438 108.684 88.8438C114.178 92.023 114.178 99.973 108.684 103.152C108.684 103.156 67.3689 127.073 53.5957 135.043Z" fill="#00C1FF"/>
<path d="M99.0728 135.043C90.2296 140.162 83.877 135.896 83.877 128.31C83.877 120.233 83.877 96 83.877 96C83.877 96 83.877 71.7668 83.877 63.6903C83.877 56.1036 90.2256 51.8383 99.0728 56.9567C112.543 64.7527 152.952 88.1447 152.952 88.1447C158.985 91.6359 158.985 100.364 152.952 103.855C152.948 103.855 112.543 127.247 99.0728 135.043Z" fill="#FEBA36"/>
<mask id="mask0_45_11904" style="mask-type:alpha" maskUnits="userSpaceOnUse" x="83" y="54" width="75" height="84">
<path d="M99.0728 135.043C90.2296 140.162 83.877 135.896 83.877 128.31C83.877 120.233 83.877 96 83.877 96C83.877 96 83.877 71.7668 83.877 63.6903C83.877 56.1036 90.2256 51.8383 99.0728 56.9567C112.543 64.7527 152.952 88.1447 152.952 88.1447C158.985 91.6359 158.985 100.364 152.952 103.855C152.948 103.855 112.543 127.247 99.0728 135.043Z" fill="#6FE4FF"/>
</mask>
<g mask="url(#mask0_45_11904)">
<g filter="url(#filter0_f_45_11904)">
<path d="M53.5957 135.043C44.7525 140.162 38.3999 135.896 38.3999 128.31C38.3999 120.233 38.3999 96 38.3999 96C38.3999 96 38.3999 71.7668 38.3999 63.6903C38.3999 56.1036 44.7486 51.8383 53.5957 56.9567C67.3689 64.9265 108.684 88.8438 108.684 88.8438C114.178 92.023 114.178 99.973 108.684 103.152C108.684 103.156 67.3689 127.073 53.5957 135.043Z" fill="#FF8A00"/>
</g>
</g>
</g>
<defs>
<filter id="filter0_f_45_11904" x="32.1599" y="48.48" width="86.8848" height="95.0399" filterUnits="userSpaceOnUse" color-interpolation-filters="sRGB">
<feFlood flood-opacity="0" result="BackgroundImageFix"/>
<feBlend mode="normal" in="SourceGraphic" in2="BackgroundImageFix" result="shape"/>
<feGaussianBlur stdDeviation="3.12" result="effect1_foregroundBlur_45_11904"/>
</filter>
<clipPath id="clip0_45_11904">
<rect width="192" height="192" fill="white"/>
</clipPath>
</defs>
</svg>
