<svg width="93" height="86" viewBox="0 0 93 86" fill="none" xmlns="http://www.w3.org/2000/svg">
<g clip-path="url(#clip0_946_3923)">
<path d="M16.3672 59.5141L14.6415 60.6183L8.52539 51.0515C6.84928 54.6612 6.68377 59.1102 8.43424 63.2729C11.5622 70.6993 19.5994 74.401 26.3904 71.5444C33.1814 68.6877 36.1541 60.348 33.0261 52.9216C30.5613 47.0624 25.0399 43.525 19.4835 43.6928L26.1467 53.8679L24.4341 54.9905L17.2169 43.9724C16.4924 44.1324 15.7741 44.3525 15.0678 44.6472C14.6465 44.8249 14.2375 45.0261 13.8446 45.2434L21.5798 57.1442L19.8628 58.2607L12.1451 46.3842C11.1897 47.148 10.3648 48.0487 9.66903 49.0459L16.3598 59.5102L16.3672 59.5141Z" fill="#FCC95F"/>
<path d="M26.1497 53.8657L19.4865 43.6907C18.7282 43.7136 17.9722 43.804 17.2198 43.9702L24.4371 54.9883L26.1497 53.8657Z" fill="#F1B23A"/>
<path d="M21.5855 57.1451L13.8502 45.2442C13.2472 45.58 12.6791 45.9645 12.1529 46.3881L19.8707 58.2646L21.5876 57.1481L21.5855 57.1451Z" fill="#F1B23A"/>
<path d="M16.3674 59.5141L9.67663 49.0498C9.23974 49.6814 8.85083 50.3478 8.52559 51.0515L14.6417 60.6183L16.3674 59.5141Z" fill="#F1B23A"/>
<path d="M41.5978 113.068L55.1086 106.188L28.6675 54.2639L15.1567 61.1434L41.5978 113.068Z" fill="#FCC95F"/>
<path d="M35.3689 58.4626C35.4149 58.8032 36.4081 66.8987 28.5231 71.5086L27.4901 69.7409C34.1722 65.8326 33.3759 59.0208 33.34 58.7329L35.3689 58.4626Z" fill="#F1B23A"/>
<path d="M75.9628 53.0707L77.9737 53.4629L80.1428 42.3172C83.029 45.0575 84.8191 49.1337 84.7223 53.6486C84.5447 61.7049 78.4322 68.1029 71.0665 67.9441C63.7009 67.7852 57.8694 61.1232 58.0469 53.0669C58.1841 46.7119 62.0176 41.3918 67.2463 39.5043L64.7922 51.4168L66.7977 51.8309L69.4569 38.9307C70.1895 38.813 70.9384 38.7536 71.7036 38.7678C72.1607 38.7781 72.615 38.8148 73.0603 38.8724L70.244 52.7839L72.2512 53.1907L75.0602 39.3082C76.2296 39.6671 77.3279 40.2013 78.3417 40.8727L75.9683 53.0643L75.9628 53.0707Z" fill="#FCC95F"/>
<path d="M64.789 51.4159L67.2431 39.5034C67.9567 39.2458 68.6929 39.0519 69.4537 38.9297L66.7944 51.8299L64.789 51.4159Z" fill="#F1B23A"/>
<path d="M70.2396 52.7867L73.0559 38.8751C73.7402 38.9655 74.4098 39.1141 75.0549 39.3145L72.2459 53.197L70.2387 52.7903L70.2396 52.7867Z" fill="#F1B23A"/>
<path d="M75.9628 53.0706L78.3362 40.8791C78.9748 41.3057 79.5815 41.7824 80.1428 42.3172L77.9737 53.4628L75.9628 53.0706Z" fill="#F1B23A"/>
<path d="M72.1966 112.15L57.1026 110.722L62.5941 52.7121L77.6881 54.1406L72.1966 112.15Z" fill="#FCC95F"/>
<path d="M57.9063 59.0812C57.9888 59.4148 60.0424 67.3082 69.0703 68.6951L69.3807 66.6714C61.7295 65.4945 59.9649 58.8673 59.8924 58.5864L57.9063 59.0812Z" fill="#F1B23A"/>
<rect x="10.8662" y="11.8485" width="56.955" height="56.955" rx="4.49645" transform="rotate(-7.92067 10.8662 11.8485)" fill="white"/>
<path d="M25.6882 69.6272C25.6882 69.6272 23.9949 63.6157 20.3298 64.8385L15.5499 68.4492L25.6882 69.6272Z" fill="#FCC95F"/>
<path d="M25.0383 65.906C26.0954 67.3796 26.5998 69.0791 26.6766 69.3468L24.7054 69.9032C24.4606 69.0412 23.5174 66.6466 22.1216 65.9094C21.6546 65.6634 21.1875 65.6295 20.6561 65.8079L20.0091 63.8647C21.066 63.5123 22.1294 63.5933 23.0849 64.1023C23.878 64.5202 24.5228 65.1875 25.0383 65.906Z" fill="#F1B23A"/>
<path d="M18.6847 65.7788L23.383 63.0907C24.6722 62.355 25.2843 60.7399 24.6426 59.4018C24.2664 58.6202 23.4849 57.968 21.9384 57.8693C21.3934 57.836 20.8588 57.9843 20.3898 58.2562L9.51119 64.4787" fill="#FCC95F"/>
<path d="M25.2509 58.4304C25.3776 58.607 25.4825 58.7854 25.5643 58.9573C26.4243 60.7475 25.688 62.9544 23.8889 63.9822L19.1906 66.6703L18.1728 64.8917L22.8712 62.2036C23.7279 61.7135 24.1055 60.6586 23.7157 59.8453C23.6138 59.6325 23.2993 58.982 21.8695 58.8917C21.5559 58.8723 21.2167 58.9588 20.8935 59.1446L10.0149 65.3671L8.99717 63.5886L19.8758 57.366C20.5458 56.9822 21.2789 56.8021 21.9938 56.8473C23.7477 56.9586 24.7127 57.6867 25.2457 58.4296L25.2509 58.4304Z" fill="#F1B23A"/>
<path d="M71.0146 65.9028C71.0146 65.9028 70.3784 59.6898 74.2363 59.479L80.0091 61.0788L71.0146 65.9028Z" fill="#FCC95F"/>
<path d="M70.2504 62.2034C69.8092 63.9625 69.9652 65.7284 69.9923 66.0056L72.0299 65.798C71.9406 64.9064 71.937 62.3327 72.9639 61.1339C73.3077 60.7333 73.7295 60.5301 74.2893 60.5005L74.1763 58.4556C73.0639 58.5166 72.1048 58.983 71.4035 59.8077C70.8196 60.488 70.4654 61.3456 70.2504 62.2034Z" fill="#F1B23A"/>
<path d="M76.1122 59.7484L70.7545 58.9766C69.2852 58.7666 68.1219 57.4898 68.2266 56.0095C68.289 55.1443 68.7758 54.2504 70.1776 53.5898C70.6722 53.3584 71.2239 53.2998 71.76 53.3801L84.1646 55.1657" fill="#FCC95F"/>
<path d="M67.3036 55.3299C67.2507 55.5407 67.2188 55.7452 67.2059 55.9351C67.0646 57.9162 68.561 59.6976 70.6119 59.9917L75.9696 60.7634L76.2618 58.7352L70.9042 57.9635C69.9273 57.8228 69.1882 56.9807 69.2515 56.0811C69.268 55.8457 69.3213 55.1251 70.6176 54.5153C70.9022 54.3819 71.2494 54.3376 71.6183 54.3915L84.0229 56.1771L84.3152 54.1489L71.9106 52.3633C71.1463 52.2528 70.3983 52.355 69.7502 52.6598C68.1601 53.4085 67.5305 54.4404 67.3081 55.3272L67.3036 55.3299Z" fill="#F1B23A"/>
<path d="M55.5269 46.476C56.3544 46.4761 57.0256 47.1475 57.0259 47.975C57.0259 48.8027 56.3545 49.4739 55.5269 49.474H31.188C30.3602 49.474 29.689 48.8028 29.689 47.975C29.6892 47.1474 30.3604 46.476 31.188 46.476H55.5269ZM43.3579 17.1147C44.318 17.1147 45.097 17.8929 45.0972 18.853V38.1254L52.3735 32.5444C52.9959 31.8654 54.0051 31.8654 54.6274 32.5444C55.2495 33.2232 55.2495 34.3235 54.6274 35.0024L44.5874 43.5522C43.9085 44.2311 42.8083 44.231 42.1294 43.5522L32.0913 35.0024C31.4691 34.3235 31.4691 33.2233 32.0913 32.5444C32.7136 31.8654 33.7229 31.8654 34.3452 32.5444L41.6196 38.1254V18.853C41.6197 17.893 42.398 17.1148 43.3579 17.1147Z" fill="#FB6C01"/>
</g>
<defs>
<clipPath id="clip0_946_3923">
<rect width="93" height="82" fill="white" transform="translate(0 4)"/>
</clipPath>
</defs>
</svg>
