<svg width="24" height="24" viewBox="0 0 24 24" fill="none" xmlns="http://www.w3.org/2000/svg">
<path d="M0 11.9999C0 11.4229 0 11.1344 0.0321296 10.8824C0.231975 9.31521 1.33557 8.01246 2.8486 7.55768C3.09186 7.48457 3.37643 7.43714 3.94558 7.34228L4.95437 7.17415C5.29033 7.11816 5.45832 7.09016 5.61532 7.03625C5.84011 6.95906 6.04935 6.84241 6.23321 6.69179C6.36162 6.5866 6.47376 6.45843 6.69805 6.2021L7.39176 5.4093C9.12773 3.42533 9.99571 2.43335 10.7504 2.33842C11.4042 2.25616 12.0567 2.5013 12.4946 2.99377C13 3.56216 13 4.88028 13 7.51652V16.4832C13 19.1195 13 20.4376 12.4946 21.006C12.0567 21.4985 11.4042 21.7436 10.7504 21.6613C9.99571 21.5664 9.12773 20.5744 7.39175 18.5905L6.69805 17.7976C6.47376 17.5413 6.36162 17.4132 6.23321 17.308C6.04935 17.1573 5.84011 17.0407 5.61532 16.9635C5.45832 16.9096 5.29033 16.8816 4.95437 16.8256L3.94558 16.6575C3.37643 16.5626 3.09186 16.5152 2.8486 16.4421C1.33557 15.9873 0.231975 14.6845 0.0321296 13.1173C0 12.8654 0 12.5769 0 11.9999Z" fill="#00C1FF"/>
<path d="M15 5.99987H17V17.9999H15V5.99987Z" fill="#00C1FF"/>
<path d="M19 7.99987H21V15.9999H19V7.99987Z" fill="#00C1FF"/>
</svg>
